<?xml version="1.0" encoding="utf-8"?>
<!-- Generator: Adobe Illustrator 22.1.0, SVG Export Plug-In . SVG Version: 6.00 Build 0)  -->
<svg version="1.1" xmlns="http://www.w3.org/2000/svg" xmlns:xlink="http://www.w3.org/1999/xlink" x="0px" y="0px"
	 viewBox="0 0 65 76" style="enable-background:new 0 0 65 76;" xml:space="preserve">
<style type="text/css">
	.st0{fill:#8F81EF;}
	.st1{fill:#B5B7F9;}
	.st2{fill:#7D5338;}
	.st3{fill:#FFFFFF;}
	.st4{fill:#AD80D2;}
	.st5{fill:#C3B0DD;}
	.st6{fill:#00849B;}
	.st7{fill:#3BA5A7;}
	.st8{fill:#FFCC0D;}
	.st9{fill:#FFEA90;}
	.st10{fill:#FF9B80;}
	.st11{fill:#FFC0B5;}
	.st12{fill:#7DA5EE;}
	.st13{fill:#AFDAF8;}
</style>
<g id="BACKGROUND_2">
</g>
<g id="BACKGROUND_1">
	<g>
		<g>
			<g>
				<path class="st0" d="M-445.3,188.1c0.7,3.7,0.7,7.8-1.1,11.1c-2.1,3.8-5.9,5.4-9.8,6.6c-2.5,0.8-4.8,0.9-7.5,0.9
					c-5.1,0.1-8.6-3.1-9.5-8.2c-0.8-4.7-0.4-10.9,2-15.1c1.5-2.7,5.1-4.6,8.2-3.8c-2.8-4.5,0-12.1,3.5-15.3
					c5.6-5.2,9.3,4.5,10.4,8.7C-447.8,178-446.3,183-445.3,188.1z"/>
			</g>
			<g>
				<path class="st1" d="M-450.2,203.2c-1.2-0.4-2.3-1.2-3.2-2.1c-0.5-0.5-2.3-2.8-1.5-3.6c1.2-1.1,5.3,4.1,6,4.9
					c-0.8-1.1-1.3-2.5-2-3.7c-1.3-2.2-5.6-9.8-3.4-12.4c1.8-2.1,4.5,2.6,5,3.6c0.8,1.5,1.4,3.1,1.9,4.7c0.3,0.8,1.4,3.5,0.9,4"/>
			</g>
			<g>
				<path class="st0" d="M-442.7,199c-0.4,0.3-0.8,0.5-1.3,0.7c-1.7,0.9-3.3,2-4.4,3.6c-1.4,2-1.2,7-1.3,9.3c0,2.7-0.3,5.9,1.8,8
					c2.1,2.1,5.7,0.5,7.8-0.8c2.4-1.5,4-5.9,5.1-8.4c0.7-1.7,1.4-3.5,1.7-5.3c4.7-1.8,6.1-2.1,8.6-3.4c3-1.5,5.6-3.5,8.1-5.6
					c2.3-1.9,4.5-4.3,5.6-7.1c1.1-2.7-2.2-4-4.5-3.8c-4.6,0.4-8.9,2.7-12.8,5c-3.8,2.2-7.6,4.3-11.6,6.2
					C-440.9,197.8-441.7,198.4-442.7,199z"/>
			</g>
			<g>
				<path class="st1" d="M-441.1,206.2c1.7-2-5-3.4-6.2-3.5c2.4,0.3,4.8,1.1,7.2,0.7c2.4-0.4,5.2-1.6,7.1-3.2c2.5-2-0.7-2.8-2.5-2.5
					c-2.7,0.4-6,1.3-8.5,2.2c-2,0.7-5.4,2.6-3.1,4.8C-445.9,205.9-442.5,207.9-441.1,206.2z"/>
			</g>
			<g>
				<g>
					<path class="st1" d="M-470.6,196.7c1.6,0.8,4.1,1.7,4,3.6c-0.1,1.2-1.3,1.6-2.5,1.8c-0.6-1.6-1.1-3.2-1.4-5
						C-470.6,197-470.6,196.8-470.6,196.7z"/>
					<path class="st1" d="M-467.6,184.2c1.7,1.1,5.1,4.7,2.4,6.2c-1.4,0.8-3.6,0-5.2-0.6c0.5-2,1.4-3.8,2.7-5.4
						C-467.7,184.3-467.6,184.3-467.6,184.2z"/>
					<path class="st1" d="M-461.7,176.6c1.5,1.7,4.2,4.8,2.9,6.2c-1,1-3.3,0.1-4.7-0.7c1-0.2,2.1-0.2,3.2-0.5
						C-461.4,180.6-461.7,178.4-461.7,176.6z"/>
					<path class="st1" d="M-457.6,165.5c1.2,1.3,3.5,5.5,1.8,6.8c-1.1,0.9-3.7-0.1-4.8-1.1c0.3-1,0.8-2,1.1-2.9
						C-459.1,167.4-458.4,166.4-457.6,165.5z"/>
				</g>
			</g>
			<g>
				<g>
					<path class="st1" d="M-440.3,215.5c-0.4,0.4-0.7,1-1.2,1.4c-0.8-3,1.5-6,3.8-5.2C-438.4,212.9-439.4,214.5-440.3,215.5z"/>
					<path class="st1" d="M-436.2,208.2c-0.4-0.8-0.6-1.7-0.5-2.7c0.3-2.2,3.4-3.3,5.6-2.7c-0.7,0.3-1.3,0.6-2,1
						C-434.8,204.9-435.5,206.4-436.2,208.2z"/>
					<path class="st1" d="M-425.5,200c-0.5-0.5-1-1.2-0.9-1.8c0.5-2.4,4.4-2.7,6.9-2.5c-0.3,0.3-0.6,0.5-0.9,0.7
						C-422,197.7-423.8,198.9-425.5,200z"/>
					<path class="st1" d="M-417.9,194c-1.1-0.2-1.9-0.8-1.5-2c0.4-1.3,3-2.4,4.6-2.8c-0.3,0.7-0.7,1.4-1.1,2.1
						C-416.4,192.3-417.1,193.2-417.9,194z"/>
				</g>
			</g>
			<path class="st2" d="M-453.7,205.3c2.1-1.5,3.8-3.2,5.6-5c1.9-1.9,3-4.3,4.8-6.3c0.4-0.4,1-0.8,1.6-1.1c0.5-1.5,0.6-3.3,0.6-4.6
				c-0.1-1.4-0.8-3.6-1.5-4.7c-0.1-0.1,0-0.3,0.1-0.3c0.1-0.1,0.3,0,0.3,0.1c0.7,1.2,1.5,3.5,1.5,4.9c0.1,1.6-0.1,3.2-0.5,4.5
				c0.7-0.1,1.3,0.1,1.5,1c2.1-3,1.9-7,1.6-8.7c0-0.1,0.1-0.2,0.2-0.3c0.1,0,0.2,0.1,0.3,0.2c0.3,1.9,0.5,6.3-2,9.5
				c-0.1,1.8-1.9,3.8-2.9,5.1c-2.5,3.5-6.5,6.8-10.3,8.7c-0.7,0.4-2.7,1-3.2-0.1C-456.5,206.9-454.5,205.9-453.7,205.3z"/>
		</g>
		<g>
			<g>
				<path class="st3" d="M-467.1,192.7c-0.4-0.4-1.5-0.8-2-0.5c-0.9,0.5-0.2,1.7,0.5,2C-467.5,194.7-466.2,193.8-467.1,192.7z"/>
			</g>
			<g>
				<path class="st3" d="M-461.9,185c0-0.7-1.2-1.8-1.9-1.1c-0.4,0.4,0,1.6,0.4,1.8C-462.7,186.1-461.8,185.8-461.9,185z"/>
			</g>
			<g>
				<path class="st3" d="M-457.8,175.7c-0.2-1.9-3-0.9-2,0.6C-459.1,177.3-457.7,177-457.8,175.7z"/>
			</g>
			<g>
				<path class="st3" d="M-444.1,215c-0.3-1.6-2-0.9-1.9,0.5C-445.9,217.2-443.7,216.9-444.1,215z"/>
			</g>
			<g>
				<path class="st3" d="M-429.1,200.6c-0.8,0.9-2.7,0.5-2.1-0.9C-430.6,198.6-428,199.3-429.1,200.6z"/>
			</g>
			<g>
				<path class="st3" d="M-417.6,188.8c-0.1-1.3-3.5,0.1-2.4,1.1C-419.3,190.5-417.5,189.7-417.6,188.8z"/>
			</g>
		</g>
		<g>
			<path class="st3" d="M-467.1,192.8c0,0,0.1,0.1,0.1,0.2c0.1,0.1,0.1,0.2,0.1,0.4c0,0.1,0,0.3-0.1,0.5c-0.2,0.3-0.6,0.6-1.1,0.6
				c-0.1,0-0.2,0-0.4,0c-0.1,0-0.1,0-0.2,0l0,0l0,0l0,0l0,0l-0.1,0c-0.2-0.1-0.4-0.3-0.6-0.5c-0.2-0.2-0.3-0.5-0.3-0.7
				c0-0.3,0-0.6,0.2-0.8c0.1-0.1,0.2-0.2,0.3-0.2c0.1,0,0.2-0.1,0.3-0.1c0.1,0,0.2,0,0.3,0c0.1,0,0.2,0,0.3,0.1
				c0.2,0,0.3,0.1,0.5,0.2c0.1,0.1,0.2,0.1,0.3,0.2C-467.2,192.6-467.1,192.7-467.1,192.8C-467.1,192.7-467.1,192.8-467.1,192.8z"/>
		</g>
		<g>
			<path class="st3" d="M-461.9,185.2c0,0.1-0.1,0.2-0.1,0.3c0,0-0.1,0.1-0.1,0.2c-0.1,0-0.1,0.1-0.2,0.1c-0.1,0-0.2,0.1-0.2,0.1
				c-0.1,0-0.2,0-0.3,0c-0.1,0-0.2,0-0.3-0.1c-0.1,0-0.2-0.1-0.3-0.1c-0.2-0.1-0.3-0.3-0.4-0.5c-0.1-0.2-0.2-0.4-0.2-0.6
				c0-0.2,0-0.5,0.1-0.7c0.1-0.2,0.4-0.3,0.6-0.3c0.2,0,0.4,0.1,0.6,0.2c0.2,0.1,0.3,0.2,0.4,0.3c0.2,0.2,0.3,0.5,0.4,0.6
				c0,0.1,0,0.2,0.1,0.2c0,0.1,0,0.1,0,0.1S-461.9,185.1-461.9,185.2z"/>
		</g>
		<path class="st1" d="M-446.6,193.3c-0.3-4.2-0.9-7.9-2-11.9c-0.5-1.9-2.1-9.5-4.3-8.2c-0.4,1.4,0.1,3.1,0.6,4.4
			c1.4,4.1,2,6,3.6,10.1L-446.6,193.3z"/>
		<path class="st1" d="M-453.1,196.9c-0.6-1.6-5.2-8.9-7.3-9.2c-3-0.2,2.4,5.1,2.9,5.6L-453.1,196.9z"/>
		<path class="st1" d="M-454.5,201.6c-2.8,0.4-5.4-0.4-8.2-0.3c-1.6,0.1-2.3,1.3-0.8,2.1c1.9,1,6-0.1,7.7-1.1L-454.5,201.6z"/>
		<path class="st1" d="M-451.4,171.6l-0.7-1.5c-0.3-0.5-0.5-1-0.8-1.4c-0.3-0.4-0.6-0.9-1.1-1.2c-0.2-0.2-0.4-0.4-0.6-0.5
			c-0.2-0.2-0.5-0.4-0.7-0.5c-0.4-0.3-0.9-0.5-1.4-0.5c-0.5,0-0.9,0.1-1.2,0.4c-0.7,0.6-1.1,1.6-1.5,2.6l-0.9,3.2
			c-0.1,0.5-0.2,1.1-0.3,1.6l-0.2,1.6c-0.1,0.5-0.1,1.1-0.1,1.6c0,0.5,0,1,0,1.6c0.1,0.5,0.1,1,0.2,1.6l0.4,1.5l0.3,1.2l-1.3-0.3
			c-0.4-0.1-0.9-0.1-1.5,0c-0.6,0.1-1.1,0.3-1.7,0.5c-0.6,0.2-1.1,0.5-1.6,0.7c-0.3,0.1-0.5,0.3-0.7,0.5l-0.2,0.1l0,0
			c0.1-0.1,0,0,0,0l-0.1,0.1l-0.3,0.3c-0.5,0.4-0.8,0.9-1.1,1.3c-0.3,0.5-0.6,1-0.8,1.5c-0.2,0.5-0.4,1.1-0.5,1.7
			c-0.1,0.6-0.2,1.2-0.3,1.8l-0.2,1.9c-0.1,0.6-0.1,1.2-0.1,1.8c0,0.6,0,1.2,0,1.8c0,0.6,0.1,1.2,0.2,1.8c0.1,0.6,0.3,1.2,0.4,1.8
			c0.2,0.6,0.4,1.1,0.7,1.7c0.3,0.6,0.6,1.1,0.9,1.6l1.1,1.5l-1.3-1.4c-0.4-0.5-0.7-1-1.1-1.6c-0.3-0.6-0.6-1.1-0.9-1.7
			c-0.2-0.6-0.5-1.2-0.6-1.8c-0.1-0.6-0.3-1.3-0.4-1.9c-0.1-0.6-0.2-1.3-0.1-1.9c0-0.7,0-1.3,0-1.9l0.1-1.9c0.1-0.6,0.1-1.3,0.2-1.9
			c0.1-0.6,0.3-1.3,0.5-1.9c0.2-0.6,0.6-1.2,0.9-1.8c0.4-0.6,0.8-1.2,1.3-1.6l0.3-0.3l0.1-0.1l0.1-0.1l0.1,0l0.2-0.2
			c0.3-0.2,0.6-0.4,0.9-0.6c0.6-0.3,1.2-0.6,1.8-0.9c0.6-0.2,1.3-0.5,2-0.6c0.7-0.1,1.4-0.2,2.3,0.1l-1,1l-0.4-1.7
			c-0.1-0.6-0.2-1.2-0.2-1.8c-0.1-0.6,0-1.2,0-1.8c0-0.6,0.1-1.1,0.2-1.7l0.3-1.7c0.1-0.6,0.2-1.2,0.3-1.7l0.5-1.6l0.6-1.6
			c0.4-1.1,0.9-2.2,2-3c0.5-0.4,1.3-0.6,1.9-0.5c0.7,0.1,1.2,0.4,1.7,0.8c0.5,0.3,0.9,0.8,1.2,1.2c0.4,0.4,0.7,0.9,1,1.4
			c0.3,0.5,0.5,1,0.7,1.6L-451.4,171.6z"/>
		<path class="st1" d="M-458.5,197.9c0,0-0.4,0.2-0.9,0.3c-0.2,0.1-0.5,0.1-0.9,0c-0.3,0-0.7-0.1-1-0.2c-0.6-0.3-1.2-0.6-1.5-1
			c-0.4-0.4-0.6-0.7-0.6-0.7s0.4-0.1,0.9-0.1c0.5,0,1.2,0.1,1.7,0.4c0.3,0.1,0.5,0.2,0.8,0.4c0.2,0.2,0.5,0.3,0.7,0.4
			C-458.8,197.6-458.5,197.9-458.5,197.9z"/>
		<path class="st1" d="M-454.2,183.6c0,0-0.3-0.2-0.7-0.5c-0.3-0.3-0.7-0.8-0.9-1.3c-0.3-0.5-0.4-1-0.4-1.4c0-0.4,0.1-0.8,0.1-0.8
			s0.4,0.1,0.7,0.4c0.4,0.3,0.8,0.7,1.1,1.2c0.2,0.5,0.3,1.1,0.3,1.5C-454,183.3-454.2,183.6-454.2,183.6z"/>
		<path class="st1" d="M-437.3,197.3c1.3-0.6,7-1.1,8.7-1.7c1.3-0.3,4.1-1.2,4.9-2.8c1.1-2.1-2.6-0.6-3.8-0.2
			c-2.2,0.7-2.8,1-4.8,2.2L-437.3,197.3z"/>
		<path class="st1" d="M-440.7,204.4c0.9-0.4,3.1-0.4,3.4,0.7c-0.3,1.5-1.7,0.3-2.7-0.3L-440.7,204.4z"/>
		<path class="st1" d="M-446.9,206.7c1.3,0.9,4,3.1,3.8,4.8c-0.2,3.7-3.4-2.9-3.6-3.5L-446.9,206.7z"/>
		<path class="st1" d="M-440.3,209.6c0,0-0.3,0.2-0.5,0.2c-0.3,0.1-0.7-0.1-0.9-0.3c-0.2-0.2-0.4-0.5-0.4-0.8c0-0.3,0-0.6,0-0.6
			s0.3-0.1,0.6-0.1c0.3,0,0.6,0.1,0.8,0.3c0.1,0.1,0.2,0.2,0.2,0.3c0.1,0.1,0.1,0.3,0.1,0.4C-440.3,209.2-440.3,209.6-440.3,209.6z"
			/>
		<path class="st1" d="M-427.6,197.2c0,0-0.1,0.3-0.4,0.5c-0.2,0.2-0.6,0.4-0.9,0.4c-0.3,0-0.7-0.1-1-0.2c-0.3-0.2-0.5-0.4-0.5-0.4
			s0.1-0.3,0.4-0.5c0.2-0.2,0.6-0.4,0.9-0.4c0.3,0,0.7,0.1,1,0.2C-427.9,197-427.6,197.2-427.6,197.2z"/>
		<path class="st1" d="M-415.9,187.2c0,0,0.2,0,0.6,0c0.2,0,0.4,0.2,0.6,0.4c0.2,0.2,0.2,0.6,0.2,0.9c0,0.7-0.2,1.5-0.6,2.4
			c-0.5,0.9-1,1.8-1.7,2.7c-0.4,0.5-0.8,1-1.2,1.4c-0.4,0.5-0.9,0.9-1.4,1.4c-0.5,0.4-1,0.9-1.6,1.4c-0.6,0.5-1.1,0.9-1.7,1.3
			c-0.6,0.4-1.3,0.8-2,1.2c-0.7,0.3-1.4,0.7-2,1c-1.3,0.7-2.8,1.3-4.1,2c-1.3,0.7-2.6,1.5-3.3,2.5c-0.3,0.5-0.6,1.2-1,1.9
			c-0.3,0.7-0.7,1.3-1,2c-1.3,2.6-2.8,5-4.4,6.7c-0.8,0.9-1.7,1.6-2.7,1.9c-1,0.4-2,0.1-2.5-0.3c-0.6-0.4-0.9-0.9-1.1-1.2
			c-0.2-0.3-0.3-0.5-0.3-0.5s0.1,0.1,0.4,0.4c0.2,0.3,0.6,0.7,1.2,1c0.6,0.3,1.4,0.4,2.1,0c0.8-0.4,1.5-1.1,2.2-2
			c1.4-1.8,2.6-4.2,3.8-6.8c0.3-0.7,0.6-1.3,0.9-2c0.3-0.7,0.5-1.3,1-2.1c1-1.5,2.5-2.3,3.9-3.1c1.4-0.7,2.8-1.4,4.2-2
			c0.7-0.3,1.4-0.6,2-0.9c0.6-0.3,1.2-0.6,1.8-1c0.6-0.4,1.2-0.8,1.7-1.2c0.5-0.4,1.1-0.8,1.6-1.2c0.5-0.4,1-0.8,1.4-1.3
			c0.4-0.4,0.8-0.9,1.2-1.3c0.4-0.4,0.7-0.9,1-1.3c0.3-0.4,0.6-0.8,0.9-1.2c0.5-0.8,0.8-1.5,0.9-2.2c0.1-0.6-0.2-1.1-0.5-1.2
			C-415.7,187.1-415.9,187.2-415.9,187.2z"/>
	</g>
	<g>
		<g>
			<g>
				<path class="st0" d="M-135.6,398.5c-0.7,3.7-0.7,7.8,1.1,11.1c2.1,3.8,5.9,5.4,9.8,6.6c2.5,0.8,4.8,0.9,7.5,0.9
					c5.1,0.1,8.6-3.1,9.5-8.2c0.8-4.7,0.4-10.9-2-15.1c-1.5-2.7-5.1-4.6-8.2-3.8c2.8-4.5,0-12.1-3.5-15.3c-5.6-5.2-9.3,4.5-10.4,8.7
					C-133.1,388.4-134.6,393.4-135.6,398.5z"/>
			</g>
			<g>
				<path class="st1" d="M-130.8,413.6c1.2-0.4,2.3-1.2,3.2-2.1c0.5-0.5,2.3-2.8,1.5-3.6c-1.2-1.1-5.3,4.1-6,4.9
					c0.8-1.1,1.3-2.5,2-3.7c1.3-2.2,5.6-9.8,3.4-12.4c-1.8-2.1-4.5,2.6-5,3.6c-0.8,1.5-1.4,3.1-1.9,4.7c-0.3,0.8-1.4,3.5-0.9,4"/>
			</g>
			<g>
				<path class="st0" d="M-138.3,409.4c0.4,0.3,0.8,0.5,1.3,0.7c1.7,0.9,3.3,2,4.4,3.6c1.4,2,1.2,7,1.3,9.3c0,2.7,0.3,5.9-1.8,8
					c-2.1,2.1-5.7,0.5-7.8-0.8c-2.4-1.5-4-5.9-5.1-8.4c-0.7-1.7-1.4-3.5-1.7-5.3c-4.7-1.8-6.1-2.1-8.6-3.4c-3-1.5-5.6-3.5-8.1-5.6
					c-2.3-1.9-4.5-4.3-5.6-7.1c-1.1-2.7,2.2-4,4.5-3.8c4.6,0.4,8.9,2.7,12.8,5c3.8,2.2,7.6,4.3,11.6,6.2
					C-140.1,408.2-139.2,408.8-138.3,409.4z"/>
			</g>
			<g>
				<path class="st1" d="M-139.9,416.6c-1.7-2,5-3.4,6.2-3.5c-2.4,0.3-4.8,1.1-7.2,0.7c-2.4-0.4-5.2-1.6-7.1-3.2
					c-2.5-2,0.7-2.8,2.5-2.5c2.7,0.4,6,1.3,8.5,2.2c2,0.7,5.4,2.6,3.1,4.8C-135,416.3-138.4,418.3-139.9,416.6z"/>
			</g>
			<g>
				<g>
					<path class="st1" d="M-110.3,407.1c-1.6,0.8-4.1,1.7-4,3.6c0.1,1.2,1.3,1.6,2.5,1.8c0.6-1.6,1.1-3.2,1.4-5
						C-110.3,407.4-110.3,407.2-110.3,407.1z"/>
					<path class="st1" d="M-113.4,394.6c-1.7,1.1-5.1,4.7-2.4,6.2c1.4,0.8,3.6,0,5.2-0.6c-0.5-2-1.4-3.8-2.7-5.4
						C-113.3,394.7-113.3,394.7-113.4,394.6z"/>
					<path class="st1" d="M-119.3,387c-1.5,1.7-4.2,4.8-2.9,6.2c1,1,3.3,0.1,4.7-0.7c-1-0.2-2.1-0.2-3.2-0.5
						C-119.5,391-119.2,388.8-119.3,387z"/>
					<path class="st1" d="M-123.3,375.9c-1.2,1.3-3.5,5.5-1.8,6.8c1.1,0.9,3.7-0.1,4.8-1.1c-0.3-1-0.8-2-1.1-2.9
						C-121.8,377.8-122.5,376.8-123.3,375.9z"/>
				</g>
			</g>
			<g>
				<g>
					<path class="st1" d="M-140.6,425.9c0.4,0.4,0.7,1,1.2,1.4c0.8-3-1.5-6-3.8-5.2C-142.5,423.4-141.6,425-140.6,425.9z"/>
					<path class="st1" d="M-144.8,418.7c0.4-0.8,0.6-1.7,0.5-2.7c-0.3-2.2-3.4-3.3-5.6-2.7c0.7,0.3,1.3,0.6,2,1
						C-146.1,415.3-145.4,416.9-144.8,418.7z"/>
					<path class="st1" d="M-155.4,410.4c0.5-0.5,1-1.2,0.9-1.8c-0.5-2.4-4.4-2.7-6.9-2.5c0.3,0.3,0.6,0.5,0.9,0.7
						C-158.9,408.2-157.2,409.3-155.4,410.4z"/>
					<path class="st1" d="M-163.1,404.5c1.1-0.2,1.9-0.8,1.5-2c-0.4-1.3-3-2.4-4.6-2.8c0.3,0.7,0.7,1.4,1.1,2.1
						C-164.6,402.7-163.9,403.6-163.1,404.5z"/>
				</g>
			</g>
			<path class="st2" d="M-127.2,415.7c-2.1-1.5-3.8-3.2-5.6-5c-1.9-1.9-3-4.3-4.8-6.3c-0.4-0.4-1-0.8-1.6-1.1
				c-0.5-1.5-0.6-3.3-0.6-4.6c0.1-1.4,0.8-3.6,1.5-4.7c0.1-0.1,0-0.3-0.1-0.3c-0.1-0.1-0.3,0-0.3,0.1c-0.7,1.2-1.5,3.5-1.5,4.9
				c-0.1,1.6,0.1,3.2,0.5,4.5c-0.7-0.1-1.3,0.1-1.5,1c-2.1-3-1.9-7-1.6-8.7c0-0.1-0.1-0.2-0.2-0.3c-0.1,0-0.3,0.1-0.3,0.2
				c-0.3,1.9-0.5,6.3,2,9.5c0.1,1.8,1.9,3.8,2.9,5.1c2.5,3.5,6.5,6.8,10.3,8.7c0.7,0.4,2.7,1,3.2-0.1
				C-124.4,417.4-126.4,416.3-127.2,415.7z"/>
		</g>
		<g>
			<g>
				<path class="st3" d="M-113.8,403.1c0.4-0.4,1.5-0.8,2-0.5c0.9,0.5,0.2,1.7-0.5,2C-113.4,405.1-114.8,404.2-113.8,403.1z"/>
			</g>
			<g>
				<path class="st3" d="M-119.1,395.4c0-0.7,1.2-1.8,1.9-1.1c0.4,0.4,0,1.6-0.4,1.8C-118.3,396.6-119.1,396.2-119.1,395.4z"/>
			</g>
			<g>
				<path class="st3" d="M-123.2,386.1c0.2-1.9,3-0.9,2,0.6C-121.9,387.7-123.3,387.4-123.2,386.1z"/>
			</g>
			<g>
				<path class="st3" d="M-136.8,425.4c0.3-1.6,2-0.9,1.9,0.5C-135.1,427.6-137.2,427.3-136.8,425.4z"/>
			</g>
			<g>
				<path class="st3" d="M-151.9,411c0.8,0.9,2.7,0.5,2.1-0.9C-150.3,409-153,409.8-151.9,411z"/>
			</g>
			<g>
				<path class="st3" d="M-163.3,399.2c0.1-1.3,3.5,0.1,2.4,1.1C-161.6,400.9-163.4,400.1-163.3,399.2z"/>
			</g>
		</g>
		<g>
			<path class="st3" d="M-113.8,403.1c0,0,0.1-0.1,0.3-0.2c0.1-0.1,0.2-0.1,0.3-0.2c0.1-0.1,0.3-0.1,0.5-0.2c0.1,0,0.2-0.1,0.3-0.1
				c0.1,0,0.2,0,0.3,0c0.1,0,0.2,0,0.3,0.1c0.1,0.1,0.2,0.1,0.3,0.2c0.2,0.2,0.3,0.5,0.2,0.8c0,0.3-0.2,0.5-0.3,0.7
				c-0.2,0.2-0.4,0.4-0.6,0.5l-0.1,0l0,0l0,0l0,0l0,0c-0.1,0-0.1,0-0.2,0c-0.1,0-0.3,0-0.4,0c-0.5-0.1-0.9-0.3-1.1-0.6
				c-0.1-0.2-0.1-0.3-0.1-0.5c0-0.2,0.1-0.3,0.1-0.4C-114,403.3-113.9,403.3-113.8,403.1C-113.8,403.2-113.8,403.1-113.8,403.1z"/>
		</g>
		<g>
			<path class="st3" d="M-119.1,395.4C-119.1,395.4-119.1,395.3-119.1,395.4c0-0.1,0-0.2,0.1-0.3c0.1-0.2,0.2-0.4,0.4-0.6
				c0.1-0.1,0.2-0.2,0.4-0.3c0.2-0.1,0.4-0.2,0.6-0.2c0.2,0,0.5,0.1,0.6,0.3c0.2,0.3,0.2,0.5,0.1,0.7c0,0.2-0.1,0.4-0.2,0.6
				c-0.1,0.2-0.2,0.4-0.4,0.5c-0.1,0.1-0.2,0.1-0.3,0.1c-0.1,0-0.2,0-0.3,0.1c-0.1,0-0.2,0-0.3,0c-0.1,0-0.2-0.1-0.2-0.1
				c-0.1,0-0.1-0.1-0.2-0.1c-0.1,0-0.1-0.1-0.1-0.2c-0.1-0.1-0.1-0.2-0.1-0.3C-119.1,395.5-119.1,395.4-119.1,395.4z"/>
		</g>
		<path class="st1" d="M-134.3,403.7c0.3-4.2,0.9-7.9,2-11.9c0.5-1.9,2.1-9.5,4.3-8.2c0.4,1.4-0.1,3.1-0.6,4.4
			c-1.4,4.1-2,6-3.6,10.1L-134.3,403.7z"/>
		<path class="st1" d="M-127.8,407.4c0.6-1.6,5.2-8.9,7.3-9.2c3-0.2-2.4,5.1-2.9,5.6L-127.8,407.4z"/>
		<path class="st1" d="M-126.5,412c2.8,0.4,5.4-0.4,8.2-0.3c1.6,0.1,2.3,1.3,0.8,2.1c-1.9,1-6-0.1-7.7-1.1L-126.5,412z"/>
		<path class="st1" d="M-129.6,382.1l0.7-1.5c0.3-0.5,0.5-1,0.8-1.4c0.3-0.4,0.6-0.9,1.1-1.2c0.2-0.2,0.4-0.4,0.6-0.5
			c0.2-0.2,0.5-0.4,0.7-0.5c0.4-0.3,0.9-0.5,1.4-0.5c0.5,0,0.9,0.1,1.2,0.4c0.7,0.6,1.1,1.6,1.5,2.6l0.9,3.2
			c0.1,0.5,0.2,1.1,0.3,1.6l0.2,1.6c0.1,0.5,0.1,1.1,0.1,1.6c0,0.5,0,1,0,1.6c-0.1,0.5-0.1,1-0.2,1.6l-0.4,1.5l-0.3,1.2l1.3-0.3
			c0.4-0.1,0.9-0.1,1.5,0c0.6,0.1,1.1,0.3,1.7,0.5c0.6,0.2,1.1,0.5,1.6,0.7c0.3,0.1,0.5,0.3,0.7,0.5l0.2,0.1l0,0c-0.1-0.1,0,0,0,0
			l0.1,0.1l0.3,0.3c0.5,0.4,0.8,0.9,1.1,1.3c0.3,0.5,0.6,1,0.8,1.5c0.2,0.5,0.4,1.1,0.5,1.7c0.1,0.6,0.2,1.2,0.3,1.8l0.2,1.9
			c0.1,0.6,0.1,1.2,0.1,1.8c0,0.6,0,1.2,0,1.8c0,0.6-0.1,1.2-0.2,1.8c-0.1,0.6-0.3,1.2-0.4,1.8c-0.2,0.6-0.4,1.1-0.7,1.7
			c-0.3,0.6-0.6,1.1-0.9,1.6l-1.1,1.5l1.3-1.4c0.4-0.5,0.7-1,1.1-1.6c0.3-0.6,0.6-1.1,0.9-1.7c0.2-0.6,0.5-1.2,0.6-1.8
			c0.1-0.6,0.3-1.3,0.4-1.9c0.1-0.6,0.2-1.3,0.1-1.9c0-0.7,0-1.3,0-1.9l-0.1-1.9c-0.1-0.6-0.1-1.3-0.2-1.9c-0.1-0.6-0.3-1.3-0.5-1.9
			c-0.2-0.6-0.6-1.2-0.9-1.8c-0.4-0.6-0.8-1.2-1.3-1.6l-0.3-0.3l-0.1-0.1l-0.1-0.1l-0.1,0l-0.2-0.2c-0.3-0.2-0.6-0.4-0.9-0.6
			c-0.6-0.3-1.2-0.6-1.8-0.9c-0.6-0.2-1.3-0.5-2-0.6c-0.7-0.1-1.4-0.2-2.3,0.1l1,1l0.5-1.7c0.1-0.6,0.2-1.2,0.2-1.8
			c0.1-0.6,0-1.2,0-1.8c0-0.6-0.1-1.1-0.2-1.7l-0.3-1.7c-0.1-0.6-0.2-1.2-0.3-1.7l-0.5-1.6l-0.6-1.6c-0.4-1.1-0.9-2.2-2-3
			c-0.5-0.4-1.3-0.6-1.9-0.5c-0.7,0.1-1.2,0.4-1.7,0.8c-0.5,0.3-0.9,0.8-1.2,1.2c-0.4,0.4-0.7,0.9-1,1.4c-0.3,0.5-0.5,1-0.7,1.6
			L-129.6,382.1z"/>
		<path class="st1" d="M-122.4,408.3c0,0,0.4,0.2,0.9,0.3c0.2,0.1,0.5,0.1,0.9,0c0.3,0,0.7-0.1,1-0.2c0.6-0.3,1.2-0.6,1.5-1
			c0.4-0.4,0.6-0.7,0.6-0.7s-0.4-0.1-0.9-0.1c-0.5,0-1.2,0.1-1.7,0.4c-0.3,0.1-0.5,0.2-0.8,0.4c-0.2,0.2-0.5,0.3-0.7,0.4
			C-122.1,408-122.4,408.3-122.4,408.3z"/>
		<path class="st1" d="M-126.8,394c0,0,0.3-0.2,0.7-0.5c0.3-0.3,0.7-0.8,0.9-1.3c0.3-0.5,0.4-1,0.4-1.4c0-0.4-0.1-0.8-0.1-0.8
			s-0.4,0.1-0.7,0.4c-0.4,0.3-0.8,0.7-1.1,1.2c-0.2,0.5-0.3,1.1-0.3,1.5C-126.9,393.7-126.8,394-126.8,394z"/>
		<path class="st1" d="M-143.7,407.7c-1.3-0.6-7-1.1-8.7-1.7c-1.3-0.3-4.1-1.2-4.9-2.8c-1.1-2.1,2.6-0.6,3.8-0.2
			c2.2,0.7,2.8,1,4.8,2.2L-143.7,407.7z"/>
		<path class="st1" d="M-140.2,414.8c-0.9-0.4-3.1-0.4-3.4,0.7c0.3,1.5,1.7,0.3,2.7-0.3L-140.2,414.8z"/>
		<path class="st1" d="M-134,417.1c-1.3,0.9-4,3.1-3.8,4.8c0.2,3.7,3.4-2.9,3.6-3.5L-134,417.1z"/>
		<path class="st1" d="M-140.7,420c0,0,0.3,0.2,0.5,0.2c0.3,0.1,0.7-0.1,0.9-0.3c0.2-0.2,0.4-0.5,0.4-0.8c0-0.3,0-0.6,0-0.6
			s-0.3-0.1-0.6-0.1c-0.3,0-0.6,0.1-0.8,0.3c-0.1,0.1-0.2,0.2-0.2,0.3c-0.1,0.1-0.1,0.3-0.1,0.4C-140.7,419.7-140.7,420-140.7,420z"
			/>
		<path class="st1" d="M-153.3,407.7c0,0,0.1,0.3,0.4,0.5c0.2,0.2,0.6,0.4,0.9,0.4c0.3,0,0.7-0.1,1-0.2c0.3-0.2,0.5-0.4,0.5-0.4
			s-0.1-0.3-0.4-0.5c-0.2-0.2-0.6-0.4-0.9-0.4c-0.3,0-0.7,0.1-1,0.2C-153.1,407.4-153.3,407.7-153.3,407.7z"/>
		<path class="st1" d="M-165,397.6c0,0-0.2,0-0.6,0c-0.2,0-0.4,0.2-0.6,0.4c-0.2,0.2-0.2,0.6-0.2,0.9c0,0.7,0.2,1.5,0.6,2.4
			c0.5,0.9,1,1.8,1.7,2.7c0.4,0.5,0.8,1,1.2,1.4c0.4,0.5,0.9,0.9,1.4,1.4c0.5,0.4,1,0.9,1.6,1.4c0.6,0.5,1.1,0.9,1.7,1.3
			c0.6,0.4,1.3,0.8,2,1.2c0.7,0.3,1.4,0.7,2,1c1.3,0.7,2.8,1.3,4.1,2c1.3,0.7,2.6,1.5,3.3,2.5c0.3,0.5,0.6,1.2,1,1.9
			c0.3,0.7,0.7,1.3,1,2c1.3,2.6,2.8,5,4.4,6.7c0.8,0.9,1.7,1.6,2.7,1.9c1,0.4,2,0.1,2.5-0.3c0.6-0.4,0.9-0.9,1.1-1.2
			c0.2-0.3,0.3-0.5,0.3-0.5s-0.1,0.1-0.4,0.4c-0.2,0.3-0.6,0.7-1.2,1c-0.6,0.3-1.4,0.4-2.1,0c-0.8-0.4-1.5-1.1-2.2-2
			c-1.4-1.8-2.6-4.2-3.8-6.8c-0.3-0.7-0.6-1.3-0.9-2c-0.3-0.7-0.5-1.3-1-2.1c-1-1.5-2.5-2.3-3.9-3.1c-1.4-0.7-2.8-1.4-4.2-2
			c-0.7-0.3-1.4-0.6-2-0.9c-0.6-0.3-1.2-0.6-1.8-1c-0.6-0.4-1.2-0.8-1.7-1.2c-0.5-0.4-1.1-0.8-1.6-1.2c-0.5-0.4-1-0.8-1.4-1.3
			c-0.4-0.4-0.8-0.9-1.2-1.3c-0.4-0.4-0.7-0.9-1-1.3c-0.3-0.4-0.6-0.8-0.9-1.2c-0.5-0.8-0.8-1.5-0.9-2.2c-0.1-0.6,0.2-1.1,0.5-1.2
			C-165.2,397.6-165,397.6-165,397.6z"/>
	</g>
	<g>
		<g>
			<g>
				<path class="st4" d="M-351.3-30.4c0.1,1.6-0.2,3.3-1.2,4.6c-1.1,1.4-2.8,1.9-4.6,2.1c-1.1,0.2-2.1,0-3.2-0.1
					c-2.1-0.3-3.4-1.9-3.4-4.1c0-2,0.6-4.6,1.8-6.2c0.8-1,2.4-1.6,3.7-1.1c-0.9-2.1,0.8-5.1,2.5-6.2c2.7-1.8,3.6,2.5,3.8,4.3
					C-351.6-34.9-351.3-32.6-351.3-30.4z"/>
			</g>
			<g>
				<path class="st5" d="M-354.3-24.4c-0.5-0.3-0.9-0.7-1.2-1.1c-0.2-0.2-0.8-1.3-0.4-1.6c0.6-0.4,2,2.1,2.2,2.5
					c-0.3-0.5-0.4-1.2-0.6-1.7c-0.4-1-1.7-4.5-0.6-5.5c0.9-0.8,1.7,1.4,1.9,1.9c0.2,0.7,0.4,1.4,0.5,2.1c0.1,0.4,0.4,1.6,0.1,1.8"/>
			</g>
			<g>
				<path class="st4" d="M-350.9-25.7c-0.2,0.1-0.4,0.2-0.6,0.2c-0.8,0.3-1.5,0.6-2.1,1.2c-0.7,0.8-1,2.9-1.1,3.8
					c-0.2,1.1-0.5,2.5,0.2,3.5c0.7,1,2.4,0.6,3.3,0.2c1.1-0.5,2.1-2.2,2.7-3.2c0.4-0.7,0.8-1.4,1.1-2.1c2.1-0.4,2.7-0.5,3.8-0.9
					c1.3-0.4,2.6-1.1,3.8-1.8c1.1-0.6,2.2-1.5,2.8-2.6c0.7-1.1-0.7-1.8-1.7-1.9c-2-0.1-3.9,0.5-5.7,1.3c-1.7,0.7-3.5,1.3-5.3,1.8
					C-350-26.1-350.4-25.9-350.9-25.7z"/>
			</g>
			<g>
				<path class="st5" d="M-350.7-22.5c0.8-0.7-1.9-1.8-2.4-1.9c1,0.3,1.9,0.8,3,0.8c1,0,2.3-0.3,3.2-0.9c1.2-0.7-0.1-1.2-0.9-1.2
					c-1.2,0-2.6,0.1-3.7,0.4c-0.9,0.2-2.4,0.7-1.6,1.8C-352.7-23-351.4-21.9-350.7-22.5z"/>
			</g>
			<g>
				<g>
					<path class="st5" d="M-362.5-28.5c0.6,0.5,1.6,1,1.4,1.8c-0.1,0.5-0.7,0.6-1.2,0.6c-0.2-0.7-0.3-1.4-0.3-2.2
						C-362.5-28.4-362.5-28.4-362.5-28.5z"/>
					<path class="st5" d="M-360.4-33.5c0.6,0.6,1.8,2.3,0.6,2.7c-0.7,0.2-1.5-0.2-2.2-0.6C-361.6-32.2-361.1-32.9-360.4-33.5
						C-360.4-33.5-360.4-33.5-360.4-33.5z"/>
					<path class="st5" d="M-357.4-36.4c0.5,0.8,1.5,2.3,0.8,2.8c-0.5,0.4-1.4-0.2-1.9-0.6c0.4,0,0.9,0,1.4,0
						C-357.5-34.7-357.5-35.6-357.4-36.4z"/>
					<path class="st5" d="M-354.9-40.8c0.4,0.6,1.1,2.5,0.3,3c-0.5,0.3-1.5-0.3-2-0.8c0.2-0.4,0.4-0.8,0.7-1.1
						C-355.7-40.1-355.3-40.4-354.9-40.8z"/>
				</g>
			</g>
			<g>
				<g>
					<path class="st5" d="M-350.9-18.6c-0.2,0.1-0.4,0.4-0.6,0.5c-0.2-1.3,1-2.4,1.9-1.9C-350-19.5-350.5-18.9-350.9-18.6z"/>
					<path class="st5" d="M-348.7-21.4c-0.1-0.4-0.1-0.8,0-1.2c0.3-0.9,1.7-1.1,2.5-0.8c-0.3,0.1-0.6,0.2-0.9,0.3
						C-348-22.7-348.3-22.1-348.7-21.4z"/>
					<path class="st5" d="M-343.7-24.1c-0.2-0.2-0.4-0.6-0.3-0.8c0.3-1,2-0.9,3.1-0.6c-0.1,0.1-0.3,0.2-0.4,0.3
						C-342.1-24.8-342.9-24.5-343.7-24.1z"/>
					<path class="st5" d="M-340.1-26.1c-0.4-0.1-0.7-0.4-0.5-0.9c0.3-0.5,1.4-0.8,2.1-0.9c-0.2,0.3-0.4,0.5-0.6,0.8
						C-339.3-26.8-339.7-26.4-340.1-26.1z"/>
				</g>
			</g>
			<path class="st2" d="M-355.9-23.8c1-0.5,1.8-1.1,2.7-1.7c0.9-0.7,1.6-1.6,2.5-2.3c0.2-0.2,0.5-0.3,0.7-0.3
				c0.3-0.6,0.5-1.4,0.5-1.9c0.1-0.6-0.1-1.5-0.3-2.1c0,0,0-0.1,0.1-0.1c0.1,0,0.1,0,0.1,0.1c0.2,0.6,0.4,1.6,0.3,2.2
				c-0.1,0.7-0.3,1.3-0.5,1.9c0.3,0,0.5,0.1,0.6,0.5c1.1-1.1,1.2-2.8,1.3-3.6c0-0.1,0-0.1,0.1-0.1c0.1,0,0.1,0,0.1,0.1
				c0,0.8-0.2,2.7-1.5,3.8c-0.1,0.8-1.1,1.5-1.5,1.9c-1.3,1.3-3.2,2.4-4.9,3c-0.3,0.1-1.2,0.3-1.3-0.2
				C-357.2-23.3-356.3-23.6-355.9-23.8z"/>
		</g>
		<g>
			<g>
				<path class="st3" d="M-360.7-29.9c-0.1-0.2-0.6-0.4-0.8-0.3c-0.4,0.2-0.2,0.7,0.1,0.9C-361-29.1-360.4-29.4-360.7-29.9z"/>
			</g>
			<g>
				<path class="st3" d="M-358-32.9c0-0.3-0.4-0.8-0.7-0.6c-0.2,0.2-0.1,0.7,0,0.8C-358.4-32.4-358-32.5-358-32.9z"/>
			</g>
			<g>
				<path class="st3" d="M-355.7-36.5c0.1-0.8-1.2-0.6-0.9,0.1C-356.3-35.9-355.7-35.9-355.7-36.5z"/>
			</g>
			<g>
				<path class="st3" d="M-352.5-19c0-0.7-0.8-0.5-0.8,0.1C-353.4-18.2-352.5-18.2-352.5-19z"/>
			</g>
			<g>
				<path class="st3" d="M-345.2-24.1c-0.4,0.3-1.2,0-0.8-0.5C-345.8-25.1-344.7-24.6-345.2-24.1z"/>
			</g>
			<g>
				<path class="st3" d="M-339.6-28.3c0.1-0.6-1.5-0.2-1.1,0.3C-340.5-27.7-339.7-27.9-339.6-28.3z"/>
			</g>
		</g>
		<g>
			<path class="st3" d="M-360.7-29.9C-360.7-29.9-360.7-29.9-360.7-29.9c0.1,0.1,0.1,0.2,0.1,0.3c0,0.1,0,0.1-0.1,0.2
				c-0.1,0.1-0.3,0.2-0.5,0.2c-0.1,0-0.1,0-0.2,0c0,0,0,0-0.1,0l0,0l0,0l0,0l0,0l0,0c-0.1-0.1-0.2-0.2-0.2-0.2
				c0-0.1-0.1-0.2-0.1-0.3c0-0.1,0.1-0.2,0.1-0.3c0.1,0,0.1,0,0.1-0.1c0.1,0,0.1,0,0.2,0c0,0,0.1,0,0.1,0c0,0,0.1,0,0.1,0
				c0.1,0,0.1,0.1,0.2,0.1c0.1,0,0.1,0.1,0.1,0.1C-360.8-30-360.7-29.9-360.7-29.9C-360.7-29.9-360.7-29.9-360.7-29.9z"/>
		</g>
		<g>
			<path class="st3" d="M-358-32.7c0,0,0,0.1-0.1,0.1c0,0,0,0-0.1,0.1c0,0-0.1,0-0.1,0c0,0-0.1,0-0.1,0c0,0-0.1,0-0.1,0
				c0,0-0.1,0-0.1-0.1c0,0-0.1,0-0.1-0.1c-0.1-0.1-0.1-0.2-0.1-0.2c0-0.1,0-0.2,0-0.3c0-0.1,0-0.2,0.1-0.3c0.1-0.1,0.2-0.1,0.3-0.1
				c0.1,0,0.2,0.1,0.2,0.1c0.1,0.1,0.1,0.1,0.1,0.2c0.1,0.1,0.1,0.2,0.1,0.3c0,0,0,0.1,0,0.1c0,0,0,0,0,0S-358-32.8-358-32.7z"/>
		</g>
		<path class="st5" d="M-352.1-28.3c0.1-1.8,0.1-3.4-0.1-5.2c-0.1-0.8-0.3-4.1-1.3-3.7c-0.3,0.5-0.2,1.3,0,1.9
			c0.3,1.8,0.4,2.7,0.9,4.5L-352.1-28.3z"/>
		<path class="st5" d="M-355.1-27.2c-0.2-0.7-1.6-4.1-2.5-4.3c-1.2-0.3,0.7,2.3,0.8,2.6L-355.1-27.2z"/>
		<path class="st5" d="M-356-25.4c-1.2,0-2.2-0.5-3.4-0.6c-0.7-0.1-1.1,0.4-0.5,0.9c0.7,0.5,2.5,0.3,3.3,0.1L-356-25.4z"/>
		<path class="st5" d="M-352.7-37.8l-0.2-0.7c-0.1-0.2-0.1-0.5-0.3-0.7c-0.1-0.2-0.2-0.4-0.4-0.6c-0.1-0.1-0.1-0.2-0.2-0.3
			c-0.1-0.1-0.2-0.2-0.3-0.2c-0.2-0.1-0.4-0.3-0.5-0.3c-0.2-0.1-0.4,0-0.5,0.1c-0.3,0.2-0.6,0.6-0.8,1l-0.6,1.3
			c-0.1,0.2-0.1,0.4-0.2,0.7l-0.2,0.7c-0.1,0.2-0.1,0.5-0.2,0.7c0,0.2-0.1,0.4-0.1,0.7c0,0.2,0,0.4,0,0.7l0.1,0.7l0.1,0.5l-0.5-0.2
			c-0.2-0.1-0.4-0.1-0.6-0.1c-0.2,0-0.5,0-0.7,0.1c-0.2,0.1-0.5,0.1-0.7,0.2c-0.1,0-0.2,0.1-0.3,0.1l-0.1,0l0,0c0,0,0,0,0,0l0,0
			l-0.2,0.1c-0.2,0.2-0.4,0.3-0.6,0.5c-0.2,0.2-0.3,0.4-0.4,0.6c-0.1,0.2-0.2,0.4-0.3,0.7c-0.1,0.2-0.2,0.5-0.3,0.7L-362-30
			c-0.1,0.3-0.1,0.5-0.2,0.8c-0.1,0.3-0.1,0.5-0.1,0.8c0,0.3,0,0.5,0,0.8c0,0.3,0,0.5,0.1,0.8c0,0.3,0.1,0.5,0.2,0.8
			c0.1,0.3,0.2,0.5,0.3,0.7l0.4,0.7l-0.4-0.7c-0.1-0.2-0.2-0.5-0.3-0.7c-0.1-0.3-0.2-0.5-0.2-0.8c0-0.3-0.1-0.5-0.1-0.8
			c0-0.3,0-0.5,0-0.8c0-0.3,0-0.5,0.1-0.8c0-0.3,0.1-0.5,0.1-0.8l0.2-0.8c0.1-0.3,0.1-0.5,0.2-0.8c0.1-0.3,0.2-0.5,0.3-0.8
			c0.1-0.3,0.3-0.5,0.5-0.7c0.2-0.2,0.4-0.4,0.6-0.6l0.2-0.1l0,0l0,0l0,0l0.1-0.1c0.1-0.1,0.3-0.1,0.4-0.2c0.3-0.1,0.5-0.2,0.8-0.2
			c0.3-0.1,0.6-0.1,0.9-0.1c0.3,0,0.6,0,0.9,0.2l-0.5,0.3l-0.1-0.8c0-0.3,0-0.5,0-0.8c0-0.3,0.1-0.5,0.1-0.7
			c0.1-0.2,0.1-0.5,0.2-0.7l0.2-0.7c0.1-0.2,0.2-0.5,0.3-0.7l0.3-0.6l0.3-0.6c0.3-0.4,0.5-0.9,1-1.1c0.2-0.1,0.6-0.2,0.8-0.1
			c0.3,0.1,0.5,0.2,0.7,0.4c0.2,0.2,0.3,0.4,0.4,0.6c0.1,0.2,0.2,0.4,0.3,0.7c0.1,0.2,0.1,0.5,0.2,0.7L-352.7-37.8z"/>
		<path class="st5" d="M-357.5-27.2c0,0-0.2,0.1-0.4,0.1c-0.1,0-0.2,0-0.4,0c-0.1,0-0.3-0.1-0.4-0.2c-0.2-0.1-0.4-0.3-0.6-0.5
			c-0.1-0.2-0.2-0.3-0.2-0.3s0.2,0,0.4,0c0.2,0,0.5,0.1,0.7,0.3c0.1,0.1,0.2,0.1,0.3,0.2c0.1,0.1,0.2,0.2,0.3,0.2
			C-357.6-27.3-357.5-27.2-357.5-27.2z"/>
		<path class="st5" d="M-354.7-32.9c0,0-0.1-0.1-0.3-0.2c-0.1-0.2-0.2-0.4-0.3-0.6c-0.1-0.2-0.1-0.4-0.1-0.6c0-0.2,0.1-0.3,0.1-0.3
			s0.1,0.1,0.3,0.2c0.1,0.1,0.3,0.4,0.4,0.6c0.1,0.2,0.1,0.5,0,0.7C-354.6-33-354.7-32.9-354.7-32.9z"/>
		<path class="st5" d="M-348.5-26c0.6-0.2,3,0,3.8-0.1c0.6,0,1.8-0.2,2.3-0.9c0.6-0.8-1.1-0.4-1.6-0.3c-1,0.1-1.3,0.2-2.2,0.6
			L-348.5-26z"/>
		<path class="st5" d="M-350.4-23.3c0.4-0.1,1.3,0,1.4,0.5c-0.2,0.6-0.8,0-1.1-0.3L-350.4-23.3z"/>
		<path class="st5" d="M-353.2-22.7c0.5,0.5,1.5,1.6,1.3,2.3c-0.3,1.5-1.2-1.5-1.3-1.7L-353.2-22.7z"/>
		<path class="st5" d="M-350.5-21.1c0,0-0.1,0-0.2,0c-0.1,0-0.3-0.1-0.4-0.2c-0.1-0.1-0.1-0.2-0.1-0.4c0-0.1,0-0.2,0-0.2
			s0.1,0,0.2,0c0.1,0,0.3,0.1,0.3,0.2c0,0.1,0.1,0.1,0.1,0.1c0,0.1,0,0.1,0,0.2C-350.5-21.2-350.5-21.1-350.5-21.1z"/>
		<path class="st5" d="M-344.4-25.4c0,0-0.1,0.1-0.2,0.2c-0.1,0.1-0.3,0.1-0.4,0.1c-0.1,0-0.3-0.1-0.4-0.2c-0.1-0.1-0.2-0.2-0.2-0.2
			s0.1-0.1,0.2-0.2c0.1-0.1,0.3-0.1,0.4-0.1c0.1,0,0.3,0.1,0.4,0.2C-344.5-25.5-344.4-25.4-344.4-25.4z"/>
		<path class="st5" d="M-338.8-28.9c0,0,0.1,0,0.2,0.1c0.1,0,0.2,0.1,0.2,0.2c0.1,0.1,0.1,0.3,0,0.4c-0.1,0.3-0.2,0.6-0.4,1
			c-0.3,0.3-0.5,0.7-0.9,1c-0.2,0.2-0.4,0.4-0.6,0.5c-0.2,0.2-0.4,0.3-0.7,0.5c-0.2,0.2-0.5,0.3-0.8,0.5c-0.3,0.2-0.5,0.3-0.8,0.4
			c-0.3,0.1-0.6,0.2-0.9,0.4c-0.3,0.1-0.6,0.2-0.9,0.3c-0.6,0.2-1.3,0.4-1.9,0.6c-0.6,0.2-1.2,0.4-1.6,0.9c-0.2,0.2-0.4,0.5-0.5,0.7
			c-0.2,0.3-0.4,0.5-0.5,0.8c-0.7,1-1.5,1.9-2.3,2.5c-0.4,0.3-0.8,0.6-1.3,0.6c-0.4,0.1-0.8-0.1-1-0.3c-0.2-0.2-0.3-0.4-0.4-0.6
			c-0.1-0.1-0.1-0.2-0.1-0.2s0,0.1,0.1,0.2c0.1,0.1,0.2,0.3,0.4,0.5c0.2,0.2,0.5,0.3,0.9,0.2c0.4-0.1,0.7-0.4,1.1-0.7
			c0.7-0.6,1.4-1.6,2.1-2.6c0.2-0.3,0.3-0.5,0.5-0.8c0.2-0.3,0.3-0.5,0.6-0.8c0.5-0.6,1.2-0.8,1.8-1c0.6-0.2,1.3-0.4,1.9-0.6
			c0.3-0.1,0.6-0.2,0.9-0.3c0.3-0.1,0.6-0.2,0.8-0.3c0.3-0.1,0.5-0.3,0.8-0.4c0.3-0.1,0.5-0.3,0.8-0.4c0.2-0.1,0.5-0.3,0.7-0.4
			c0.2-0.1,0.4-0.3,0.6-0.4c0.2-0.1,0.4-0.3,0.5-0.5c0.2-0.2,0.3-0.3,0.4-0.4c0.2-0.3,0.4-0.6,0.5-0.9c0.1-0.3,0-0.5-0.1-0.6
			C-338.7-28.9-338.8-28.9-338.8-28.9z"/>
	</g>
	<g>
		<g>
			<g>
				<path class="st6" d="M-368.8,349.7c-0.6,1.7-0.9,3.6-0.2,5.2c0.7,1.9,2.4,2.9,4.1,3.7c1.1,0.5,2.2,0.7,3.4,0.9
					c2.4,0.4,4.2-0.9,5-3.2c0.7-2.1,0.9-5,0.1-7.2c-0.5-1.4-2-2.5-3.5-2.3c1.6-1.9,0.8-5.6-0.6-7.3c-2.2-2.8-4.6,1.4-5.4,3.3
					C-367,345.1-368,347.4-368.8,349.7z"/>
			</g>
			<g>
				<path class="st7" d="M-367.6,357c0.6-0.1,1.2-0.4,1.6-0.8c0.3-0.2,1.3-1.1,0.9-1.6c-0.5-0.6-2.8,1.5-3.1,1.9
					c0.4-0.4,0.8-1.1,1.2-1.6c0.7-1,3.2-4.2,2.4-5.5c-0.7-1.1-2.3,0.9-2.6,1.3c-0.5,0.6-0.9,1.3-1.2,2c-0.2,0.4-0.9,1.5-0.7,1.8"/>
			</g>
			<g>
				<path class="st6" d="M-370.8,354.5c0.2,0.1,0.4,0.3,0.5,0.4c0.7,0.5,1.4,1.1,1.8,2c0.5,1,0.1,3.3-0.1,4.4
					c-0.2,1.3-0.3,2.8-1.4,3.6c-1.1,0.8-2.7-0.1-3.6-0.9c-1-0.9-1.5-3-1.8-4.3c-0.2-0.8-0.4-1.7-0.4-2.6c-2-1.1-2.7-1.4-3.8-2.2
					c-1.3-0.9-2.3-2-3.4-3.1c-0.9-1-1.8-2.3-2.1-3.7c-0.3-1.4,1.3-1.7,2.4-1.5c2.1,0.5,3.9,1.9,5.6,3.2c1.6,1.3,3.3,2.5,5,3.6
					C-371.6,353.9-371.2,354.2-370.8,354.5z"/>
			</g>
			<g>
				<path class="st7" d="M-372,357.8c-0.7-1,2.5-1.3,3.1-1.2c-1.1,0-2.3,0.2-3.4-0.2c-1.1-0.4-2.3-1.1-3.1-1.9c-1-1.1,0.5-1.3,1.3-1
					c1.2,0.4,2.7,1,3.8,1.6c0.9,0.5,2.3,1.6,1.1,2.4C-369.7,358-371.5,358.7-372,357.8z"/>
			</g>
			<g>
				<g>
					<path class="st7" d="M-357.7,355.4c-0.8,0.3-2,0.5-2.1,1.4c-0.1,0.6,0.5,0.9,1,1c0.4-0.7,0.7-1.4,1-2.2
						C-357.7,355.5-357.7,355.4-357.7,355.4z"/>
					<path class="st7" d="M-358.2,349.4c-0.9,0.4-2.7,1.8-1.5,2.7c0.6,0.5,1.7,0.3,2.5,0.1C-357.4,351.2-357.7,350.3-358.2,349.4
						C-358.2,349.4-358.2,349.4-358.2,349.4z"/>
					<path class="st7" d="M-360.5,345.4c-0.8,0.7-2.3,1.9-1.7,2.7c0.4,0.6,1.5,0.3,2.2,0c-0.5-0.1-0.9-0.3-1.4-0.4
						C-360.8,347.3-360.6,346.3-360.5,345.4z"/>
					<path class="st7" d="M-361.6,340c-0.7,0.5-2,2.3-1.3,3c0.5,0.5,1.7,0.2,2.3-0.2c-0.1-0.5-0.2-1-0.3-1.4
						C-361,341-361.3,340.5-361.6,340z"/>
				</g>
			</g>
			<g>
				<g>
					<path class="st7" d="M-373,362c0.2,0.2,0.2,0.5,0.5,0.7c0.6-1.3-0.3-2.9-1.4-2.7C-373.7,360.7-373.4,361.5-373,362z"/>
					<path class="st7" d="M-374.5,358.4c0.2-0.4,0.4-0.8,0.4-1.2c0-1-1.4-1.7-2.4-1.6c0.3,0.2,0.6,0.4,0.9,0.6
						C-374.8,356.8-374.6,357.5-374.5,358.4z"/>
					<path class="st7" d="M-378.8,353.9c0.3-0.2,0.6-0.5,0.5-0.8c-0.1-1.1-1.9-1.6-3-1.6c0.1,0.1,0.2,0.3,0.3,0.4
						C-380.3,352.6-379.6,353.2-378.8,353.9z"/>
					<path class="st7" d="M-382,350.6c0.5,0,0.9-0.2,0.8-0.8c-0.1-0.6-1.2-1.3-1.9-1.6c0.1,0.4,0.2,0.7,0.4,1
						C-382.6,349.7-382.3,350.1-382,350.6z"/>
				</g>
			</g>
			<path class="st2" d="M-366.1,358.2c-0.9-0.8-1.6-1.8-2.3-2.7c-0.7-1-1.1-2.2-1.8-3.2c-0.2-0.2-0.4-0.5-0.7-0.6
				c-0.1-0.7-0.1-1.6,0.1-2.2c0.1-0.6,0.6-1.6,1-2.1c0,0,0-0.1,0-0.2c0,0-0.1,0-0.2,0c-0.4,0.5-0.9,1.5-1,2.2
				c-0.1,0.7-0.2,1.5-0.1,2.1c-0.3-0.1-0.6,0-0.8,0.4c-0.8-1.5-0.4-3.4-0.2-4.2c0-0.1,0-0.1-0.1-0.1c-0.1,0-0.1,0-0.1,0.1
				c-0.2,0.9-0.7,2.9,0.3,4.5c-0.1,0.8,0.6,1.9,1,2.5c0.9,1.8,2.6,3.6,4.2,4.7c0.3,0.2,1.2,0.7,1.5,0.2
				C-364.9,359.2-365.8,358.5-366.1,358.2z"/>
		</g>
		<g>
			<g>
				<path class="st3" d="M-359,353.3c0.2-0.2,0.7-0.2,1-0.1c0.4,0.3,0,0.8-0.4,0.9C-359,354.2-359.5,353.7-359,353.3z"/>
			</g>
			<g>
				<path class="st3" d="M-360.9,349.3c0.1-0.3,0.7-0.7,0.9-0.4c0.2,0.2-0.1,0.7-0.3,0.8C-360.6,349.9-361,349.7-360.9,349.3z"/>
			</g>
			<g>
				<path class="st3" d="M-362.2,344.8c0.2-0.9,1.5-0.2,0.9,0.4C-361.7,345.6-362.3,345.3-362.2,344.8z"/>
			</g>
			<g>
				<path class="st3" d="M-371.2,362.1c0.3-0.7,1-0.3,0.9,0.4C-370.5,363.2-371.5,362.9-371.2,362.1z"/>
			</g>
			<g>
				<path class="st3" d="M-377.2,354.4c0.3,0.5,1.2,0.4,1-0.3C-376.4,353.5-377.7,353.7-377.2,354.4z"/>
			</g>
			<g>
				<path class="st3" d="M-381.8,348.1c0.1-0.6,1.6,0.3,1,0.7C-381.1,349-381.8,348.5-381.8,348.1z"/>
			</g>
		</g>
		<g>
			<path class="st3" d="M-359,353.3c0,0,0,0,0.1-0.1c0,0,0.1,0,0.2-0.1c0.1,0,0.1,0,0.2,0c0,0,0.1,0,0.1,0c0,0,0.1,0,0.1,0
				c0.1,0,0.1,0,0.2,0.1c0.1,0,0.1,0.1,0.1,0.1c0.1,0.1,0.1,0.2,0.1,0.4c0,0.1-0.1,0.2-0.2,0.3c-0.1,0.1-0.2,0.2-0.3,0.2l0,0l0,0
				l0,0l0,0l0,0c0,0-0.1,0-0.1,0c-0.1,0-0.1,0-0.2,0c-0.2-0.1-0.4-0.2-0.5-0.4c0-0.1,0-0.2,0-0.2c0-0.1,0.1-0.1,0.1-0.2
				C-359.1,353.4-359.1,353.3-359,353.3C-359,353.3-359,353.3-359,353.3z"/>
		</g>
		<g>
			<path class="st3" d="M-360.9,349.3C-360.9,349.3-360.9,349.3-360.9,349.3c0-0.1,0-0.1,0-0.1c0-0.1,0.1-0.2,0.2-0.3
				c0.1,0,0.1-0.1,0.2-0.1c0.1,0,0.2-0.1,0.3,0c0.1,0,0.2,0.1,0.3,0.2c0.1,0.1,0,0.2,0,0.3c0,0.1-0.1,0.2-0.1,0.3
				c-0.1,0.1-0.1,0.2-0.2,0.2c-0.1,0-0.1,0-0.1,0c0,0-0.1,0-0.1,0c0,0-0.1,0-0.1,0c0,0-0.1,0-0.1-0.1c0,0-0.1-0.1-0.1-0.1
				c0,0,0-0.1-0.1-0.1c0-0.1,0-0.1,0-0.2C-360.9,349.4-360.9,349.3-360.9,349.3z"/>
		</g>
		<path class="st7" d="M-368.6,352.2c0.4-1.9,1-3.6,1.7-5.4c0.4-0.8,1.6-4.3,2.5-3.5c0.1,0.7-0.3,1.4-0.6,2
			c-0.9,1.8-1.3,2.7-2.4,4.4L-368.6,352.2z"/>
		<path class="st7" d="M-365.8,354.3c0.4-0.7,3-3.8,4-3.8c1.4,0.1-1.5,2.2-1.7,2.4L-365.8,354.3z"/>
		<path class="st7" d="M-365.5,356.6c1.3,0.4,2.5,0.2,3.8,0.4c0.7,0.2,1,0.8,0.2,1.1c-1,0.3-2.8-0.5-3.5-1L-365.5,356.6z"/>
		<path class="st7" d="M-364.9,342.4l0.4-0.7c0.2-0.2,0.3-0.4,0.5-0.6c0.2-0.2,0.4-0.4,0.6-0.5c0.1-0.1,0.2-0.1,0.3-0.2
			c0.1-0.1,0.2-0.1,0.3-0.2c0.2-0.1,0.5-0.2,0.7-0.2c0.2,0,0.4,0.1,0.5,0.3c0.3,0.3,0.4,0.8,0.5,1.3l0.2,1.5c0,0.3,0,0.5,0,0.8
			l0,0.8c0,0.2,0,0.5-0.1,0.8c0,0.2-0.1,0.5-0.1,0.7c-0.1,0.2-0.1,0.5-0.2,0.7l-0.3,0.7l-0.2,0.6l0.6,0c0.2,0,0.4,0,0.7,0.1
			c0.2,0.1,0.5,0.2,0.7,0.3c0.2,0.1,0.5,0.3,0.7,0.5c0.1,0.1,0.2,0.2,0.3,0.3l0.1,0.1l0,0c0,0,0,0,0,0l0,0l0.1,0.2
			c0.2,0.2,0.3,0.5,0.4,0.7c0.1,0.2,0.2,0.5,0.3,0.8c0.1,0.3,0.1,0.5,0.1,0.8c0,0.3,0,0.6,0,0.9l0,0.9c0,0.3,0,0.6-0.1,0.9
			c0,0.3-0.1,0.6-0.1,0.8c0,0.3-0.1,0.6-0.2,0.8c-0.1,0.3-0.2,0.5-0.3,0.8c-0.1,0.3-0.3,0.5-0.4,0.8c-0.2,0.2-0.4,0.5-0.5,0.7
			l-0.6,0.6l0.7-0.6c0.2-0.2,0.4-0.4,0.6-0.7c0.2-0.2,0.4-0.5,0.5-0.7c0.1-0.3,0.3-0.5,0.4-0.8c0.1-0.3,0.2-0.6,0.3-0.9
			c0.1-0.3,0.2-0.6,0.2-0.9c0.1-0.3,0.1-0.6,0.1-0.9l0.1-0.9c0-0.3,0-0.6,0-0.9c0-0.3,0-0.6-0.1-0.9c-0.1-0.3-0.2-0.6-0.3-0.9
			c-0.1-0.3-0.3-0.6-0.5-0.8l-0.1-0.2l0,0l0,0l0,0l-0.1-0.1c-0.1-0.1-0.2-0.2-0.4-0.3c-0.2-0.2-0.5-0.4-0.8-0.5
			c-0.3-0.2-0.6-0.3-0.9-0.4c-0.3-0.1-0.7-0.2-1.1-0.1l0.4,0.5l0.3-0.8c0.1-0.3,0.2-0.5,0.2-0.8c0.1-0.3,0.1-0.6,0.1-0.8
			c0-0.3,0-0.5,0-0.8l0-0.8c0-0.3,0-0.5,0-0.8l-0.1-0.8l-0.2-0.8c-0.1-0.5-0.3-1.1-0.7-1.5c-0.2-0.2-0.5-0.4-0.9-0.4
			c-0.3,0-0.6,0.1-0.8,0.3c-0.2,0.1-0.4,0.3-0.7,0.5c-0.2,0.2-0.4,0.4-0.6,0.6c-0.2,0.2-0.3,0.4-0.4,0.7L-364.9,342.4z"/>
		<path class="st7" d="M-363.4,355.1c0,0,0.2,0.1,0.4,0.2c0.1,0,0.2,0.1,0.4,0.1c0.2,0,0.3,0,0.5,0c0.3-0.1,0.6-0.2,0.8-0.4
			c0.2-0.1,0.3-0.3,0.3-0.3s-0.2-0.1-0.4-0.1c-0.2,0-0.5,0-0.8,0c-0.1,0-0.3,0.1-0.4,0.1c-0.1,0.1-0.2,0.1-0.4,0.1
			C-363.2,355-363.4,355.1-363.4,355.1z"/>
		<path class="st7" d="M-364.4,348.2c0,0,0.2,0,0.3-0.2c0.2-0.1,0.4-0.3,0.5-0.5c0.1-0.2,0.2-0.4,0.3-0.6c0-0.2,0-0.4,0-0.4
			s-0.2,0-0.4,0.1c-0.2,0.1-0.4,0.3-0.6,0.5c-0.1,0.2-0.2,0.5-0.2,0.7C-364.5,348-364.4,348.2-364.4,348.2z"/>
		<path class="st7" d="M-373.2,353.4c-0.6-0.4-3.2-1-3.9-1.4c-0.6-0.2-1.8-0.8-2.1-1.6c-0.4-1.1,1.3-0.1,1.8,0.2
			c1,0.5,1.3,0.7,2.1,1.3L-373.2,353.4z"/>
		<path class="st7" d="M-372.1,356.9c-0.4-0.2-1.4-0.4-1.6,0.1c0,0.7,0.8,0.2,1.3,0L-372.1,356.9z"/>
		<path class="st7" d="M-369.3,358.4c-0.7,0.3-2.1,1.2-2.1,2c-0.1,1.7,1.8-1.1,1.9-1.4L-369.3,358.4z"/>
		<path class="st7" d="M-372.6,359.3c0,0,0.1,0.1,0.2,0.1c0.1,0,0.3,0,0.5-0.1c0.1-0.1,0.2-0.2,0.2-0.3c0-0.1,0-0.3,0-0.3
			s-0.1-0.1-0.3-0.1c-0.1,0-0.3,0-0.4,0.1c-0.1,0-0.1,0.1-0.1,0.1c0,0.1-0.1,0.1-0.1,0.2C-372.6,359.1-372.6,359.3-372.6,359.3z"/>
		<path class="st7" d="M-377.7,352.7c0,0,0,0.1,0.1,0.3c0.1,0.1,0.2,0.2,0.4,0.3c0.2,0,0.3,0,0.5,0c0.1-0.1,0.3-0.2,0.3-0.2
			s0-0.1-0.1-0.3c-0.1-0.1-0.2-0.2-0.4-0.3c-0.2,0-0.3,0-0.5,0C-377.5,352.6-377.7,352.7-377.7,352.7z"/>
		<path class="st7" d="M-382.4,347.2c0,0-0.1,0-0.3,0c-0.1,0-0.2,0-0.3,0.1c-0.1,0.1-0.1,0.3-0.2,0.4c0,0.3,0,0.7,0.1,1.2
			c0.2,0.4,0.3,0.9,0.6,1.4c0.1,0.2,0.3,0.5,0.5,0.7c0.2,0.2,0.4,0.5,0.5,0.7c0.2,0.2,0.4,0.5,0.6,0.7c0.2,0.3,0.5,0.5,0.7,0.7
			c0.3,0.2,0.6,0.4,0.8,0.7c0.3,0.2,0.6,0.4,0.9,0.6c0.6,0.4,1.2,0.8,1.8,1.2c0.6,0.4,1.1,0.9,1.4,1.4c0.1,0.2,0.2,0.6,0.3,0.9
			c0.1,0.3,0.2,0.7,0.3,1c0.4,1.3,1,2.5,1.6,3.4c0.3,0.5,0.7,0.9,1.1,1.1c0.4,0.2,0.9,0.2,1.2,0c0.3-0.2,0.5-0.4,0.6-0.5
			c0.1-0.1,0.2-0.2,0.2-0.2s-0.1,0.1-0.2,0.2c-0.1,0.1-0.3,0.3-0.6,0.4c-0.3,0.1-0.7,0.1-1-0.1c-0.3-0.2-0.6-0.6-0.9-1.1
			c-0.5-0.9-0.9-2.1-1.3-3.4c-0.1-0.3-0.2-0.7-0.3-1c-0.1-0.3-0.2-0.7-0.3-1.1c-0.4-0.7-1-1.2-1.6-1.7c-0.6-0.4-1.2-0.8-1.8-1.2
			c-0.3-0.2-0.6-0.4-0.9-0.6c-0.3-0.2-0.5-0.4-0.8-0.6c-0.2-0.2-0.5-0.5-0.7-0.7c-0.2-0.2-0.4-0.5-0.7-0.7c-0.2-0.2-0.4-0.5-0.6-0.7
			c-0.2-0.2-0.3-0.5-0.5-0.7c-0.2-0.2-0.3-0.5-0.4-0.7c-0.1-0.2-0.2-0.4-0.3-0.6c-0.2-0.4-0.3-0.8-0.2-1.1c0-0.3,0.2-0.5,0.3-0.5
			C-382.5,347.2-382.4,347.2-382.4,347.2z"/>
	</g>
	<g>
		<g>
			<g>
				<path class="st8" d="M-207.4,26.2c0.7,2.2,0.9,4.7,0,6.9c-1.1,2.4-3.3,3.7-5.6,4.6c-1.5,0.6-2.9,0.8-4.5,1
					c-3.1,0.3-5.4-1.4-6.3-4.5c-0.8-2.8-0.9-6.7,0.3-9.4c0.8-1.8,2.8-3.1,4.8-2.8c-2-2.6-0.7-7.4,1.2-9.6c3.1-3.5,5.9,2.2,6.9,4.7
					C-209.5,20.1-208.3,23.1-207.4,26.2z"/>
			</g>
			<g>
				<path class="st9" d="M-209.5,35.7c-0.8-0.2-1.5-0.6-2.1-1.1c-0.3-0.3-1.6-1.6-1.1-2.1c0.7-0.7,3.5,2.2,4,2.7
					c-0.5-0.6-0.9-1.5-1.4-2.2c-0.9-1.3-4-5.7-2.8-7.4c1-1.4,2.9,1.3,3.3,1.9c0.6,0.8,1.1,1.8,1.5,2.7c0.2,0.5,1.1,2,0.8,2.4"/>
			</g>
			<g>
				<path class="st8" d="M-205.1,32.7c-0.2,0.2-0.5,0.4-0.7,0.5c-1,0.6-1.9,1.4-2.5,2.4c-0.7,1.3-0.4,4.4-0.2,5.8
					c0.2,1.7,0.2,3.6,1.6,4.8c1.4,1.1,3.5,0,4.7-0.9c1.4-1.1,2.1-3.9,2.6-5.5c0.3-1.1,0.6-2.2,0.7-3.4c2.8-1.4,3.6-1.7,5.1-2.6
					c1.7-1.1,3.2-2.4,4.7-3.9c1.3-1.3,2.5-2.9,3-4.7c0.5-1.8-1.6-2.3-3-2.1c-2.8,0.5-5.3,2.2-7.6,3.8c-2.2,1.6-4.4,3.1-6.8,4.5
					C-204.1,31.9-204.6,32.3-205.1,32.7z"/>
			</g>
			<g>
				<path class="st9" d="M-203.7,37c0.9-1.3-3.2-1.8-4-1.8c1.5,0,3,0.4,4.5,0c1.4-0.4,3.1-1.3,4.2-2.4c1.4-1.4-0.6-1.7-1.7-1.4
					c-1.6,0.4-3.6,1.1-5.1,1.9c-1.2,0.6-3.2,1.9-1.6,3.1C-206.8,37.1-204.5,38.2-203.7,37z"/>
			</g>
			<g>
				<g>
					<path class="st9" d="M-222.4,32.9c1,0.4,2.6,0.8,2.7,2c0,0.7-0.7,1.1-1.4,1.3c-0.5-0.9-0.9-1.9-1.2-3
						C-222.4,33.1-222.4,33-222.4,32.9z"/>
					<path class="st9" d="M-221.3,25.1c1.1,0.6,3.4,2.6,1.8,3.6c-0.8,0.6-2.2,0.2-3.2,0C-222.5,27.5-222.1,26.3-221.3,25.1
						C-221.3,25.2-221.3,25.2-221.3,25.1z"/>
					<path class="st9" d="M-218.1,20.1c1,0.9,2.9,2.7,2.1,3.7c-0.5,0.7-2,0.2-2.9-0.1c0.6-0.2,1.3-0.3,1.9-0.5
						C-217.7,22.5-218,21.2-218.1,20.1z"/>
					<path class="st9" d="M-216.3,13.1c0.8,0.8,2.4,3.2,1.5,4.1c-0.6,0.6-2.3,0.2-3-0.4c0.2-0.6,0.3-1.2,0.5-1.8
						C-217.1,14.3-216.7,13.6-216.3,13.1z"/>
				</g>
			</g>
			<g>
				<g>
					<path class="st9" d="M-202.7,42.7c-0.2,0.3-0.4,0.7-0.6,0.9c-0.7-1.8,0.6-3.8,2-3.4C-201.7,41-202.2,42.1-202.7,42.7z"/>
					<path class="st9" d="M-200.6,38c-0.3-0.5-0.5-1-0.4-1.6c0-1.3,1.9-2.2,3.3-2c-0.4,0.2-0.8,0.5-1.2,0.7
						C-200,35.9-200.3,36.9-200.6,38z"/>
					<path class="st9" d="M-194.6,32.3c-0.4-0.2-0.7-0.7-0.7-1.1c0.1-1.5,2.6-1.9,4.1-1.9c-0.2,0.2-0.3,0.3-0.5,0.5
						C-192.5,30.7-193.6,31.5-194.6,32.3z"/>
					<path class="st9" d="M-190.2,28.2c-0.7,0-1.2-0.4-1-1.1c0.2-0.8,1.7-1.7,2.6-2c-0.1,0.5-0.3,0.9-0.5,1.3
						C-189.4,27.1-189.8,27.7-190.2,28.2z"/>
				</g>
			</g>
			<path class="st2" d="M-211.6,37.2c1.2-1,2.1-2.2,3.1-3.4c1-1.3,1.6-2.8,2.6-4.1c0.2-0.3,0.6-0.6,0.9-0.7c0.2-0.9,0.2-2.1,0.1-2.9
				c-0.1-0.8-0.7-2.1-1.2-2.8c0-0.1,0-0.2,0-0.2c0.1,0,0.2,0,0.2,0c0.5,0.7,1.1,2,1.2,2.9c0.1,1,0.1,2,0,2.8c0.4-0.1,0.8,0,1,0.5
				c1.1-2,0.7-4.4,0.5-5.4c0-0.1,0-0.2,0.1-0.2c0.1,0,0.2,0,0.2,0.1c0.3,1.1,0.7,3.8-0.7,5.9c0.1,1.1-1,2.4-1.5,3.3
				c-1.4,2.3-3.6,4.5-5.8,5.9c-0.4,0.3-1.6,0.8-2,0.1C-213.2,38.4-212,37.6-211.6,37.2z"/>
		</g>
		<g>
			<g>
				<path class="st3" d="M-220.5,30.3c-0.3-0.2-0.9-0.4-1.2-0.2c-0.5,0.4,0,1.1,0.4,1.2C-220.7,31.5-219.9,30.9-220.5,30.3z"/>
			</g>
			<g>
				<path class="st3" d="M-217.7,25.2c-0.1-0.4-0.9-1-1.2-0.6c-0.2,0.3,0.1,0.9,0.4,1.1C-218.2,26-217.7,25.7-217.7,25.2z"/>
			</g>
			<g>
				<path class="st3" d="M-215.8,19.3c-0.2-1.2-1.9-0.4-1.2,0.5C-216.5,20.3-215.6,20.1-215.8,19.3z"/>
			</g>
			<g>
				<path class="st3" d="M-205.1,42.6c-0.3-1-1.3-0.4-1.1,0.4C-206,44.1-204.7,43.7-205.1,42.6z"/>
			</g>
			<g>
				<path class="st3" d="M-196.7,32.9c-0.4,0.6-1.6,0.4-1.3-0.4C-197.8,31.8-196.1,32.1-196.7,32.9z"/>
			</g>
			<g>
				<path class="st3" d="M-190.4,25c-0.1-0.8-2.2,0.2-1.4,0.8C-191.3,26.1-190.3,25.6-190.4,25z"/>
			</g>
		</g>
		<g>
			<path class="st3" d="M-220.5,30.4c0,0,0.1,0.1,0.1,0.1c0,0.1,0.1,0.1,0.1,0.2c0,0.1,0,0.2,0,0.3c-0.1,0.2-0.3,0.4-0.6,0.5
				c-0.1,0-0.2,0-0.2,0c0,0-0.1,0-0.1,0l0,0h0l0,0l0,0l-0.1,0c-0.2-0.1-0.3-0.2-0.4-0.3c-0.1-0.1-0.2-0.3-0.2-0.4
				c0-0.2,0-0.4,0.1-0.5c0.1-0.1,0.1-0.1,0.2-0.1c0.1,0,0.1-0.1,0.2-0.1c0.1,0,0.1,0,0.2,0c0.1,0,0.1,0,0.2,0c0.1,0,0.2,0,0.3,0.1
				c0.1,0,0.2,0.1,0.2,0.1C-220.6,30.3-220.5,30.3-220.5,30.4C-220.5,30.3-220.5,30.3-220.5,30.4z"/>
		</g>
		<g>
			<path class="st3" d="M-217.7,25.4c0,0.1,0,0.1-0.1,0.2c0,0,0,0.1-0.1,0.1c0,0-0.1,0.1-0.1,0.1c0,0-0.1,0-0.1,0.1
				c-0.1,0-0.1,0-0.2,0c-0.1,0-0.1,0-0.2,0c-0.1,0-0.1,0-0.2-0.1c-0.1-0.1-0.2-0.2-0.3-0.3c-0.1-0.1-0.1-0.2-0.2-0.4
				c0-0.1,0-0.3,0-0.5c0.1-0.1,0.2-0.2,0.4-0.2c0.1,0,0.3,0,0.4,0.1c0.1,0.1,0.2,0.1,0.3,0.2c0.2,0.1,0.2,0.3,0.3,0.4
				c0,0.1,0,0.1,0,0.1c0,0,0,0,0,0S-217.7,25.3-217.7,25.4z"/>
		</g>
		<path class="st9" d="M-207.9,29.5c-0.4-2.5-1-4.8-1.9-7.2c-0.4-1.1-1.9-5.7-3.1-4.8c-0.2,0.9,0.3,1.9,0.6,2.6
			c1.1,2.4,1.6,3.6,2.8,6L-207.9,29.5z"/>
		<path class="st9" d="M-211.7,32.1c-0.5-0.9-3.7-5.2-5-5.2c-1.8,0.1,1.8,3,2.1,3.3L-211.7,32.1z"/>
		<path class="st9" d="M-212.2,35c-1.7,0.4-3.3,0.1-5,0.3c-1,0.2-1.3,1-0.4,1.4c1.2,0.5,3.7-0.4,4.7-1.1L-212.2,35z"/>
		<path class="st9" d="M-212.1,16.5l-0.5-0.9c-0.2-0.3-0.4-0.6-0.6-0.8c-0.2-0.2-0.4-0.5-0.7-0.7c-0.1-0.1-0.3-0.2-0.4-0.3
			c-0.1-0.1-0.3-0.2-0.4-0.3c-0.3-0.1-0.6-0.2-0.9-0.2c-0.3,0-0.5,0.1-0.7,0.3c-0.4,0.4-0.6,1.1-0.8,1.7l-0.4,2
			c-0.1,0.3,0,0.7-0.1,1l-0.1,1c0,0.3,0,0.7,0,1c0,0.3,0,0.6,0.1,1c0.1,0.3,0.1,0.6,0.2,0.9l0.3,0.9l0.3,0.7l-0.8-0.1
			c-0.3,0-0.6,0-0.9,0.1c-0.3,0.1-0.7,0.2-1,0.4c-0.3,0.2-0.6,0.3-0.9,0.6c-0.1,0.1-0.3,0.2-0.4,0.3l-0.1,0.1l0,0c0,0,0,0,0,0l0,0.1
			l-0.2,0.2c-0.3,0.3-0.4,0.6-0.6,0.9c-0.2,0.3-0.3,0.6-0.4,1c-0.1,0.3-0.2,0.7-0.2,1.1c0,0.4-0.1,0.7-0.1,1.1l0,1.2
			c0,0.4,0,0.8,0,1.1c0,0.4,0.1,0.7,0.1,1.1c0,0.4,0.2,0.7,0.2,1.1c0.1,0.4,0.2,0.7,0.4,1.1c0.1,0.4,0.3,0.7,0.5,1
			c0.2,0.3,0.4,0.6,0.6,1l0.8,0.9l-0.9-0.8c-0.2-0.3-0.5-0.6-0.8-0.9c-0.2-0.3-0.4-0.6-0.6-1c-0.2-0.4-0.4-0.7-0.5-1.1
			c-0.1-0.4-0.3-0.8-0.3-1.1c-0.1-0.4-0.2-0.8-0.2-1.2c-0.1-0.4-0.1-0.8-0.1-1.2l0-1.2c0-0.4,0-0.8,0-1.2c0-0.4,0.1-0.8,0.2-1.2
			c0.1-0.4,0.3-0.8,0.4-1.2c0.2-0.4,0.4-0.8,0.7-1l0.2-0.2l0-0.1l0,0l0,0l0.1-0.1c0.2-0.2,0.3-0.3,0.5-0.4c0.3-0.2,0.7-0.5,1.1-0.6
			c0.4-0.2,0.8-0.4,1.2-0.5c0.4-0.1,0.9-0.2,1.4-0.1l-0.5,0.7l-0.4-1c-0.1-0.3-0.2-0.7-0.2-1.1c-0.1-0.4-0.1-0.7-0.1-1.1
			c0-0.4,0-0.7,0-1.1l0.1-1.1c0-0.4,0-0.7,0.1-1.1l0.2-1l0.2-1c0.2-0.7,0.4-1.4,1-2c0.3-0.3,0.7-0.4,1.1-0.4c0.4,0,0.8,0.2,1.1,0.4
			c0.3,0.2,0.6,0.4,0.8,0.7c0.3,0.2,0.5,0.5,0.7,0.8c0.2,0.3,0.4,0.6,0.5,0.9L-212.1,16.5z"/>
		<path class="st9" d="M-214.9,33c0,0-0.2,0.1-0.5,0.2c-0.2,0.1-0.3,0.1-0.5,0.1c-0.2,0-0.4,0-0.6-0.1c-0.4-0.1-0.7-0.3-1-0.5
			c-0.2-0.2-0.4-0.4-0.4-0.4s0.2-0.1,0.6-0.1c0.3,0,0.7,0,1.1,0.1c0.2,0,0.3,0.1,0.5,0.2c0.1,0.1,0.3,0.1,0.5,0.2
			C-215.1,32.8-214.9,33-214.9,33z"/>
		<path class="st9" d="M-213.1,24c0,0-0.2-0.1-0.4-0.2c-0.2-0.2-0.5-0.4-0.6-0.7c-0.2-0.3-0.3-0.6-0.3-0.8c0-0.3,0-0.5,0-0.5
			s0.2,0,0.5,0.2c0.2,0.1,0.5,0.4,0.7,0.7c0.2,0.3,0.2,0.6,0.3,0.9C-213,23.7-213.1,24-213.1,24z"/>
		<path class="st9" d="M-201.9,31.4c0.8-0.4,4.2-1.1,5.2-1.5c0.8-0.3,2.4-1,2.8-2c0.5-1.4-1.6-0.2-2.3,0.1c-1.3,0.5-1.7,0.8-2.8,1.6
			L-201.9,31.4z"/>
		<path class="st9" d="M-203.6,35.9c0.5-0.3,1.9-0.4,2.1,0.2c-0.1,0.9-1.1,0.3-1.7,0L-203.6,35.9z"/>
		<path class="st9" d="M-207.3,37.7c0.9,0.5,2.6,1.7,2.6,2.7c0.1,2.3-2.3-1.6-2.4-1.9L-207.3,37.7z"/>
		<path class="st9" d="M-203,39c0,0-0.1,0.1-0.3,0.2c-0.2,0-0.4,0-0.6-0.1c-0.2-0.1-0.3-0.3-0.3-0.5c0-0.2,0-0.4,0-0.4
			s0.2-0.1,0.3-0.1c0.2,0,0.4,0,0.5,0.1c0.1,0.1,0.1,0.1,0.2,0.2c0,0.1,0.1,0.2,0.1,0.2C-203.1,38.9-203,39-203,39z"/>
		<path class="st9" d="M-196,30.8c0,0-0.1,0.2-0.2,0.3c-0.1,0.2-0.3,0.3-0.5,0.3c-0.2,0-0.4,0-0.6-0.1c-0.2-0.1-0.3-0.2-0.3-0.2
			s0.1-0.2,0.2-0.3c0.1-0.2,0.3-0.3,0.5-0.3c0.2,0,0.4,0,0.6,0.1C-196.2,30.6-196,30.8-196,30.8z"/>
		<path class="st9" d="M-189.4,23.9c0,0,0.1,0,0.3,0c0.1,0,0.3,0.1,0.4,0.2c0.1,0.1,0.2,0.3,0.2,0.6c0,0.4-0.1,1-0.3,1.5
			c-0.3,0.6-0.5,1.1-0.9,1.8c-0.2,0.3-0.4,0.6-0.7,1c-0.2,0.3-0.5,0.6-0.8,0.9c-0.3,0.3-0.6,0.6-0.9,0.9c-0.3,0.3-0.6,0.6-1,0.9
			c-0.4,0.3-0.8,0.6-1.2,0.8c-0.4,0.2-0.8,0.5-1.2,0.7c-0.8,0.5-1.6,1-2.4,1.5c-0.8,0.5-1.5,1.1-1.9,1.8c-0.2,0.3-0.3,0.8-0.5,1.2
			c-0.2,0.4-0.3,0.9-0.5,1.3c-0.7,1.7-1.4,3.2-2.3,4.4c-0.4,0.6-0.9,1.1-1.5,1.4c-0.6,0.3-1.2,0.2-1.6-0.1c-0.4-0.2-0.6-0.5-0.7-0.7
			c-0.1-0.2-0.2-0.3-0.2-0.3s0.1,0.1,0.2,0.2c0.2,0.2,0.4,0.4,0.8,0.5c0.4,0.2,0.9,0.2,1.3-0.1c0.5-0.3,0.9-0.8,1.2-1.3
			c0.8-1.2,1.3-2.7,1.9-4.4c0.1-0.4,0.3-0.8,0.4-1.3c0.1-0.4,0.2-0.9,0.5-1.4c0.5-1,1.4-1.6,2.2-2.1c0.8-0.5,1.6-1,2.4-1.5
			c0.4-0.2,0.8-0.5,1.2-0.7c0.4-0.2,0.7-0.5,1.1-0.7c0.3-0.3,0.7-0.6,1-0.8c0.3-0.3,0.6-0.6,0.9-0.8c0.3-0.3,0.5-0.6,0.8-0.8
			c0.2-0.3,0.4-0.6,0.7-0.8c0.2-0.3,0.4-0.6,0.6-0.8c0.2-0.3,0.3-0.5,0.5-0.8c0.2-0.5,0.4-1,0.4-1.4c0-0.4-0.2-0.7-0.4-0.7
			C-189.3,23.9-189.4,23.9-189.4,23.9z"/>
	</g>
	<g>
		<g>
			<g>
				<path class="st10" d="M31.6,33.3c0,2.3,0.4,4.8,1.9,6.6c1.7,2.1,4.2,2.6,6.7,2.9c1.6,0.2,3,0,4.6-0.3c3.1-0.5,4.9-2.8,4.8-6
					c0-2.9-1-6.7-2.9-8.9c-1.2-1.5-3.6-2.2-5.4-1.4c1.2-3-1.3-7.3-3.8-8.9c-3.9-2.5-5.1,3.7-5.4,6.4C32,26.9,31.7,30.1,31.6,33.3z"
					/>
			</g>
			<g>
				<path class="st11" d="M36.2,41.9c0.7-0.4,1.3-1,1.7-1.6c0.2-0.3,1.1-2,0.5-2.3c-0.8-0.5-2.8,3.1-3.1,3.7
					c0.4-0.7,0.5-1.7,0.8-2.5c0.5-1.5,2.3-6.6,0.7-7.9c-1.3-1.1-2.4,2.1-2.7,2.8c-0.3,1-0.5,2-0.6,3c-0.1,0.5-0.5,2.3-0.1,2.6"/>
			</g>
			<g>
				<path class="st10" d="M31.2,40.2c0.3,0.1,0.6,0.2,0.9,0.3c1.1,0.3,2.2,0.8,3,1.7c1.1,1.1,1.5,4.1,1.8,5.5c0.3,1.7,0.8,3.5-0.2,5
					c-1,1.5-3.4,1-4.8,0.4c-1.6-0.6-3.1-3.1-4-4.5c-0.6-1-1.2-2-1.6-3c-3-0.6-3.9-0.6-5.6-1.1c-2-0.6-3.8-1.5-5.5-2.5
					c-1.6-0.9-3.2-2.1-4.2-3.7c-1-1.5,0.9-2.7,2.3-2.8c2.8-0.3,5.7,0.6,8.3,1.6c2.5,0.9,5.1,1.8,7.7,2.4C30,39.7,30.6,40,31.2,40.2z
					"/>
			</g>
			<g>
				<path class="st11" d="M31.1,44.8c-1.3-1,2.6-2.6,3.4-2.8c-1.4,0.4-2.8,1.2-4.3,1.2c-1.5,0-3.3-0.4-4.7-1.1
					c-1.8-0.9,0.1-1.8,1.2-1.8c1.7-0.1,3.8,0.1,5.4,0.4c1.3,0.2,3.6,1,2.4,2.6C34,44,32.1,45.6,31.1,44.8z"/>
			</g>
			<g>
				<g>
					<path class="st11" d="M47.9,35.7c-0.9,0.7-2.3,1.5-2,2.6c0.2,0.7,1,0.9,1.7,0.8c0.2-1,0.3-2.1,0.3-3.2
						C47.9,35.9,47.9,35.8,47.9,35.7z"/>
					<path class="st11" d="M44.7,28.5c-0.9,0.9-2.6,3.4-0.8,4c1,0.3,2.2-0.4,3.1-0.9C46.5,30.4,45.8,29.4,44.7,28.5
						C44.7,28.6,44.7,28.5,44.7,28.5z"/>
					<path class="st11" d="M40.2,24.5c-0.7,1.2-2,3.4-1,4.1c0.7,0.5,2-0.3,2.8-0.9c-0.6,0-1.3,0.1-2,0.1
						C40.5,27,40.5,25.6,40.2,24.5z"/>
					<path class="st11" d="M36.5,18.3c-0.6,1-1.5,3.7-0.3,4.3c0.8,0.4,2.2-0.5,2.8-1.2c-0.3-0.6-0.7-1.1-1-1.6
						C37.7,19.3,37.1,18.7,36.5,18.3z"/>
				</g>
			</g>
			<g>
				<g>
					<path class="st11" d="M31.6,50.5c0.3,0.2,0.5,0.6,0.9,0.7c0.2-1.9-1.6-3.5-2.9-2.7C30.2,49.2,31,50,31.6,50.5z"/>
					<path class="st11" d="M28.3,46.6c0.2-0.6,0.2-1.1,0-1.7c-0.4-1.3-2.4-1.6-3.7-1c0.4,0.1,0.9,0.2,1.3,0.4
						C27.1,44.7,27.7,45.6,28.3,46.6z"/>
					<path class="st11" d="M21,42.8c0.3-0.3,0.5-0.8,0.4-1.2c-0.5-1.4-3-1.2-4.4-0.7c0.2,0.1,0.4,0.2,0.6,0.4
						C18.6,41.8,19.8,42.3,21,42.8z"/>
					<path class="st11" d="M15.6,40c0.6-0.2,1.1-0.7,0.7-1.4c-0.4-0.8-2.1-1.1-3.1-1.2c0.3,0.4,0.6,0.8,0.9,1.1
						C14.5,39.1,15.1,39.6,15.6,40z"/>
				</g>
			</g>
			<path class="st2" d="M38.6,42.8c-1.4-0.7-2.7-1.5-3.9-2.4c-1.3-1-2.3-2.3-3.6-3.3c-0.3-0.2-0.7-0.4-1.1-0.5
				c-0.5-0.8-0.7-1.9-0.9-2.7c-0.1-0.8,0.1-2.2,0.4-3c0-0.1,0-0.2-0.1-0.2c-0.1,0-0.2,0-0.2,0.1c-0.3,0.8-0.5,2.3-0.4,3.2
				c0.1,1,0.4,1.9,0.8,2.7c-0.4,0-0.8,0.2-0.8,0.8c-1.6-1.6-1.9-4-2-5.1c0-0.1-0.1-0.1-0.2-0.1c-0.1,0-0.1,0.1-0.1,0.2
				c0,1.2,0.4,3.9,2.3,5.5c0.2,1.1,1.6,2.1,2.3,2.7c1.9,1.8,4.7,3.4,7.2,4.1c0.5,0.1,1.7,0.3,1.9-0.4C40.5,43.5,39.2,43.1,38.6,42.8
				z"/>
		</g>
		<g>
			<g>
				<path class="st3" d="M45.4,33.7c0.2-0.3,0.8-0.6,1.1-0.5c0.6,0.2,0.3,1-0.1,1.3C45.8,34.8,44.9,34.4,45.4,33.7z"/>
			</g>
			<g>
				<path class="st3" d="M41.3,29.6c-0.1-0.4,0.6-1.2,1-0.9c0.3,0.2,0.2,0.9,0,1.2C41.9,30.2,41.4,30.1,41.3,29.6z"/>
			</g>
			<g>
				<path class="st3" d="M37.8,24.4c-0.1-1.2,1.7-0.9,1.3,0.1C38.7,25.2,37.9,25.2,37.8,24.4z"/>
			</g>
			<g>
				<path class="st3" d="M33.9,49.8c0-1,1.1-0.7,1.2,0.1C35.2,50.9,33.9,51,33.9,49.8z"/>
			</g>
			<g>
				<path class="st3" d="M23.2,42.7c0.6,0.4,1.7,0,1.2-0.8C23.9,41.3,22.4,42.1,23.2,42.7z"/>
			</g>
			<g>
				<path class="st3" d="M14.9,36.9c-0.1-0.8,2.2-0.4,1.6,0.4C16.1,37.7,15,37.4,14.9,36.9z"/>
			</g>
		</g>
		<g>
			<path class="st3" d="M45.4,33.7c0,0,0-0.1,0.1-0.2c0,0,0.1-0.1,0.2-0.1c0.1-0.1,0.2-0.1,0.3-0.2c0.1,0,0.1-0.1,0.2-0.1
				c0.1,0,0.1,0,0.2,0c0.1,0,0.1,0,0.2,0c0.1,0,0.1,0,0.2,0.1c0.1,0.1,0.2,0.3,0.2,0.4c0,0.2,0,0.3-0.1,0.5
				c-0.1,0.1-0.2,0.3-0.3,0.4l-0.1,0l0,0l0,0l0,0l0,0c0,0-0.1,0-0.1,0c-0.1,0-0.2,0-0.2,0c-0.3,0-0.6-0.1-0.7-0.3
				c-0.1-0.1-0.1-0.2-0.1-0.3c0-0.1,0-0.2,0-0.2C45.3,33.8,45.3,33.8,45.4,33.7C45.3,33.7,45.4,33.7,45.4,33.7z"/>
		</g>
		<g>
			<path class="st3" d="M41.3,29.6C41.3,29.6,41.3,29.6,41.3,29.6c0-0.1,0-0.1,0-0.2c0-0.1,0.1-0.3,0.2-0.4c0-0.1,0.1-0.2,0.2-0.2
				c0.1-0.1,0.2-0.2,0.3-0.2c0.1,0,0.3,0,0.4,0.1c0.1,0.1,0.1,0.3,0.2,0.4c0,0.1,0,0.3-0.1,0.4c0,0.1-0.1,0.3-0.2,0.4
				C42.3,30,42.2,30,42.2,30c0,0-0.1,0.1-0.2,0.1c-0.1,0-0.1,0-0.2,0c-0.1,0-0.1,0-0.2,0c0,0-0.1,0-0.1-0.1c0,0-0.1-0.1-0.1-0.1
				c-0.1-0.1-0.1-0.1-0.1-0.2C41.3,29.7,41.3,29.6,41.3,29.6z"/>
		</g>
		<path class="st11" d="M33,36.4c-0.3-2.6-0.3-4.9-0.1-7.5c0.1-1.2,0.2-6,1.7-5.4c0.4,0.8,0.3,1.9,0.1,2.7c-0.4,2.6-0.5,3.9-1.1,6.5
			L33,36.4z"/>
		<path class="st11" d="M37.3,37.8c0.2-1,2.1-6,3.4-6.4c1.8-0.4-0.9,3.4-1.1,3.7L37.3,37.8z"/>
		<path class="st11" d="M38.7,40.5c1.8-0.1,3.2-0.9,4.9-1.1c1-0.1,1.5,0.6,0.7,1.2c-1.1,0.8-3.7,0.6-4.8,0.2L38.7,40.5z"/>
		<path class="st11" d="M33.5,22.7l0.2-1c0.1-0.3,0.2-0.7,0.3-1c0.2-0.3,0.3-0.6,0.5-0.9c0.1-0.1,0.2-0.3,0.3-0.4
			c0.1-0.1,0.2-0.3,0.4-0.4c0.2-0.2,0.5-0.4,0.8-0.5c0.3-0.1,0.5,0,0.8,0.1c0.5,0.3,0.9,0.9,1.2,1.4l0.9,1.8
			c0.1,0.3,0.2,0.6,0.3,0.9l0.3,0.9c0.1,0.3,0.2,0.7,0.2,1c0,0.3,0.1,0.6,0.2,1c0,0.3,0.1,0.6,0,1l-0.1,1l-0.1,0.8l0.8-0.3
			c0.2-0.1,0.5-0.2,0.9-0.2c0.3,0,0.7,0,1.1,0.1c0.4,0.1,0.7,0.2,1,0.3c0.2,0.1,0.3,0.1,0.5,0.2l0.1,0.1l0,0c0,0,0,0,0,0l0.1,0
			l0.2,0.2c0.3,0.2,0.6,0.5,0.8,0.7c0.2,0.3,0.5,0.5,0.7,0.8c0.2,0.3,0.4,0.6,0.5,1c0.1,0.3,0.3,0.7,0.4,1.1l0.4,1.1
			c0.1,0.4,0.2,0.7,0.3,1.1c0.1,0.4,0.1,0.7,0.2,1.1c0.1,0.4,0.1,0.7,0.1,1.1c0,0.4,0,0.8-0.1,1.1c0,0.4-0.1,0.7-0.2,1.1
			c-0.1,0.4-0.2,0.7-0.4,1.1l-0.5,1.1l0.6-1c0.2-0.4,0.3-0.7,0.5-1.1c0.1-0.4,0.3-0.7,0.3-1.1c0-0.4,0.2-0.8,0.2-1.2
			c0-0.4,0-0.8,0-1.2c0-0.4,0-0.8-0.1-1.2c-0.1-0.4-0.1-0.8-0.2-1.2l-0.3-1.1c-0.1-0.4-0.2-0.8-0.4-1.1c-0.1-0.4-0.3-0.8-0.5-1.1
			c-0.2-0.4-0.5-0.7-0.7-1c-0.3-0.3-0.6-0.6-0.9-0.8L44.8,28l-0.1,0l-0.1,0l0,0l-0.1-0.1c-0.2-0.1-0.4-0.2-0.6-0.3
			c-0.4-0.1-0.8-0.3-1.2-0.3c-0.4-0.1-0.8-0.1-1.3-0.1c-0.4,0-0.9,0.1-1.4,0.3l0.7,0.5l0.1-1.1c0-0.4,0-0.7-0.1-1.1
			c0-0.4-0.1-0.7-0.2-1.1c-0.1-0.3-0.2-0.6-0.3-1l-0.4-1c-0.1-0.3-0.2-0.7-0.4-1l-0.5-0.9l-0.5-0.9c-0.4-0.6-0.8-1.2-1.5-1.6
			c-0.4-0.2-0.8-0.2-1.2-0.1c-0.4,0.1-0.7,0.4-0.9,0.7c-0.2,0.3-0.4,0.6-0.6,0.9c-0.2,0.3-0.3,0.6-0.5,1c-0.1,0.3-0.2,0.7-0.2,1
			L33.5,22.7z"/>
		<path class="st11" d="M40.7,37.8c0,0,0.2,0.1,0.6,0.1c0.2,0,0.3,0,0.5-0.1c0.2-0.1,0.4-0.2,0.6-0.3c0.3-0.2,0.6-0.5,0.8-0.8
			c0.2-0.3,0.3-0.5,0.3-0.5s-0.2,0-0.6,0c-0.3,0.1-0.7,0.2-1,0.4c-0.1,0.1-0.3,0.2-0.4,0.3c-0.1,0.1-0.3,0.2-0.4,0.3
			C40.9,37.6,40.7,37.8,40.7,37.8z"/>
		<path class="st11" d="M36.5,29.6c0,0,0.2-0.1,0.4-0.4c0.2-0.2,0.3-0.5,0.4-0.9c0.1-0.3,0.1-0.6,0.1-0.9c0-0.3-0.1-0.5-0.1-0.5
			s-0.2,0.1-0.4,0.3c-0.2,0.2-0.4,0.5-0.5,0.9c-0.1,0.3-0.1,0.7,0,1C36.4,29.4,36.5,29.6,36.5,29.6z"/>
		<path class="st11" d="M27.8,39.8c-0.8-0.2-4.4,0.1-5.5,0c-0.8,0-2.6-0.3-3.3-1.2c-0.9-1.2,1.5-0.7,2.3-0.6
			c1.4,0.2,1.8,0.3,3.2,0.8L27.8,39.8z"/>
		<path class="st11" d="M30.7,43.7c-0.6-0.1-1.9,0.1-2,0.8c0.3,0.9,1.1,0,1.6-0.5L30.7,43.7z"/>
		<path class="st11" d="M34.7,44.4c-0.7,0.7-2.1,2.3-1.8,3.4c0.6,2.2,1.7-2.1,1.8-2.5L34.7,44.4z"/>
		<path class="st11" d="M30.9,46.9c0,0,0.2,0.1,0.3,0.1c0.2,0,0.4-0.1,0.5-0.3c0.1-0.2,0.2-0.4,0.2-0.5c0-0.2-0.1-0.4-0.1-0.4
			s-0.2,0-0.4,0c-0.2,0-0.4,0.1-0.5,0.3C31,46.1,31,46.2,31,46.3c0,0.1,0,0.2,0,0.3C30.9,46.7,30.9,46.9,30.9,46.9z"/>
		<path class="st11" d="M21.9,40.8c0,0,0.1,0.2,0.3,0.3c0.2,0.1,0.4,0.2,0.6,0.2c0.2,0,0.4-0.1,0.6-0.2c0.2-0.1,0.3-0.3,0.3-0.3
			s-0.1-0.2-0.3-0.3c-0.2-0.1-0.4-0.2-0.6-0.2c-0.2,0-0.4,0.1-0.6,0.2C22,40.7,21.9,40.8,21.9,40.8z"/>
		<path class="st11" d="M13.7,36c0,0-0.1,0-0.3,0.1c-0.1,0-0.2,0.1-0.3,0.3C13,36.6,13,36.8,13,37c0.1,0.4,0.3,0.9,0.7,1.4
			c0.4,0.5,0.8,1,1.3,1.5c0.3,0.2,0.6,0.5,0.9,0.7c0.3,0.2,0.7,0.5,1,0.7c0.4,0.2,0.7,0.4,1.1,0.7c0.4,0.2,0.8,0.4,1.2,0.6
			c0.4,0.2,0.9,0.3,1.3,0.5c0.4,0.1,0.9,0.3,1.4,0.4c0.9,0.2,1.8,0.5,2.7,0.8c0.9,0.3,1.7,0.6,2.3,1.2c0.2,0.3,0.5,0.7,0.8,1
			c0.3,0.4,0.5,0.7,0.8,1.1c1.1,1.4,2.2,2.7,3.4,3.6c0.6,0.4,1.2,0.8,1.8,0.9c0.6,0.1,1.2-0.2,1.5-0.5c0.3-0.3,0.4-0.6,0.5-0.8
			c0.1-0.2,0.1-0.3,0.1-0.3s-0.1,0.1-0.2,0.3c-0.1,0.2-0.3,0.5-0.6,0.7c-0.3,0.3-0.8,0.4-1.3,0.3c-0.5-0.1-1-0.5-1.6-1
			c-1-0.9-2-2.2-3.1-3.7c-0.3-0.4-0.5-0.7-0.8-1.1c-0.3-0.4-0.5-0.8-0.9-1.2c-0.8-0.8-1.8-1.1-2.7-1.4C24,43,23,42.8,22.1,42.5
			c-0.5-0.1-0.9-0.2-1.3-0.3c-0.4-0.1-0.8-0.3-1.2-0.4c-0.4-0.2-0.8-0.4-1.2-0.5c-0.4-0.2-0.7-0.4-1.1-0.6c-0.3-0.2-0.7-0.4-1-0.6
			c-0.3-0.2-0.6-0.4-0.9-0.6c-0.3-0.2-0.5-0.5-0.8-0.7c-0.2-0.2-0.5-0.4-0.7-0.6c-0.4-0.4-0.6-0.8-0.8-1.2c-0.1-0.4,0-0.7,0.2-0.8
			C13.6,36.1,13.7,36.1,13.7,36z"/>
	</g>
	<g>
		<g>
			<g>
				<path class="st12" d="M89.5,263.7c1.5,3.8,2.2,8.2,0.8,12.2c-1.6,4.5-5.3,6.9-9.4,8.9c-2.6,1.3-5,1.8-7.9,2.3
					c-5.5,1-9.8-1.8-11.7-7.1c-1.7-4.9-2.5-11.7-0.7-16.6c1.1-3.2,4.6-5.9,8.1-5.6c-3.8-4.3-2.3-13,0.9-17.1
					c5-6.6,10.8,3.1,12.8,7.4C84.9,253.2,87.4,258.4,89.5,263.7z"/>
			</g>
			<g>
				<path class="st13" d="M87,280.8c-1.4-0.3-2.7-0.9-3.8-1.7c-0.6-0.4-3-2.6-2.3-3.6c1.1-1.4,6.5,3.4,7.4,4.2c-1-1-1.9-2.5-2.8-3.7
					c-1.8-2.2-7.8-9.6-5.9-12.7c1.5-2.6,5.3,1.9,6.1,3c1.1,1.4,2.1,3.1,2.9,4.6c0.4,0.8,2.2,3.5,1.8,4.2"/>
			</g>
			<g>
				<path class="st12" d="M94.3,274.9c-0.4,0.3-0.8,0.7-1.2,1c-1.7,1.3-3.2,2.7-4,4.6c-1.1,2.5,0,7.7,0.4,10.3
					c0.5,2.9,0.8,6.4,3.4,8.2c2.6,1.8,6.3-0.5,8.2-2.3c2.2-2.1,3.2-7.1,3.9-10c0.5-2,0.8-4,0.8-6.1c4.7-2.8,6.2-3.4,8.6-5.3
					c2.9-2.2,5.3-4.7,7.7-7.5c2.1-2.5,4-5.5,4.7-8.7c0.7-3.2-3.1-3.9-5.6-3.2c-4.9,1.3-9.1,4.5-12.8,7.7c-3.6,3.1-7.4,6.1-11.4,8.8
					C96.1,273.3,95.2,274.1,94.3,274.9z"/>
			</g>
			<g>
				<path class="st13" d="M97.4,282.4c1.4-2.5-6-2.8-7.3-2.6c2.7-0.1,5.4,0.3,7.9-0.6c2.5-0.9,5.3-2.7,7.1-4.7
					c2.4-2.6-1.2-2.9-3.2-2.3c-2.8,0.9-6.2,2.5-8.8,4c-2,1.2-5.3,3.8-2.5,5.7C92.1,282.9,96.2,284.4,97.4,282.4z"/>
			</g>
			<g>
				<g>
					<path class="st13" d="M63.8,277.6c1.9,0.6,4.7,1.1,4.9,3.1c0.1,1.3-1.1,2-2.3,2.4c-1-1.6-1.8-3.3-2.5-5.1
						C63.9,277.9,63.9,277.7,63.8,277.6z"/>
					<path class="st13" d="M64.8,263.6c2.1,0.9,6.3,4.1,3.7,6.2c-1.4,1.1-3.9,0.7-5.7,0.4c0.2-2.2,0.8-4.3,1.9-6.4
						C64.8,263.8,64.8,263.7,64.8,263.6z"/>
					<path class="st13" d="M69.8,254.3c1.9,1.5,5.4,4.4,4.2,6.2c-0.9,1.3-3.5,0.7-5.2,0.2c1.1-0.4,2.2-0.6,3.3-1.1
						C70.8,258.6,70.1,256.3,69.8,254.3z"/>
					<path class="st13" d="M72.1,241.7c1.6,1.2,4.7,5.3,3.2,7c-1.1,1.2-4,0.6-5.4-0.3c0.2-1.1,0.4-2.2,0.7-3.3
						C70.9,244,71.4,242.8,72.1,241.7z"/>
				</g>
			</g>
			<g>
				<g>
					<path class="st13" d="M100,292.2c-0.4,0.5-0.5,1.2-1,1.7c-1.5-3,0.6-6.7,3.1-6.3C101.5,289.1,100.8,291,100,292.2z"/>
					<path class="st13" d="M103.1,283.6c-0.6-0.8-1-1.8-1-2.8c-0.1-2.4,3.1-4.1,5.5-3.9c-0.7,0.4-1.3,0.9-1.9,1.4
						C103.9,279.8,103.4,281.6,103.1,283.6z"/>
					<path class="st13" d="M113,272.8c-0.7-0.4-1.3-1.1-1.3-1.8c0-2.6,4.3-3.8,6.9-4c-0.3,0.3-0.5,0.6-0.8,1
						C116.3,269.7,114.6,271.3,113,272.8z"/>
					<path class="st13" d="M120.1,265c-1.2,0-2.2-0.5-2-1.9c0.2-1.5,2.8-3.2,4.4-3.8c-0.2,0.8-0.5,1.6-0.8,2.4
						C121.4,262.8,120.8,263.9,120.1,265z"/>
				</g>
			</g>
			<path class="st2" d="M83.6,283.7c2-2,3.5-4.2,5.1-6.5c1.6-2.4,2.5-5.2,4-7.7c0.3-0.5,0.9-1.1,1.5-1.4c0.2-1.7,0.1-3.7-0.2-5.1
				c-0.3-1.5-1.5-3.7-2.5-4.8c-0.1-0.1-0.1-0.3,0-0.4c0.1-0.1,0.3-0.1,0.4,0c1,1.2,2.2,3.5,2.6,5c0.4,1.7,0.5,3.5,0.3,4.9
				c0.7-0.2,1.4-0.1,1.8,0.8c1.7-3.6,0.7-7.8,0.1-9.7c0-0.1,0-0.3,0.2-0.3c0.1,0,0.3,0,0.3,0.2c0.6,2,1.7,6.7-0.4,10.5
				c0.3,1.9-1.4,4.4-2.2,6c-2.1,4.2-5.8,8.5-9.5,11.3c-0.7,0.6-2.7,1.6-3.4,0.5C80.9,286,82.9,284.5,83.6,283.7z"/>
		</g>
		<g>
			<g>
				<path class="st3" d="M66.9,272.7c-0.5-0.4-1.7-0.5-2.2-0.1c-0.9,0.7,0.1,1.9,0.9,2.1C66.8,274.8,68.1,273.6,66.9,272.7z"/>
			</g>
			<g>
				<path class="st3" d="M71.1,263.4c-0.2-0.8-1.7-1.7-2.2-0.9c-0.4,0.6,0.3,1.7,0.8,1.9C70.5,264.8,71.3,264.3,71.1,263.4z"/>
			</g>
			<g>
				<path class="st3" d="M73.8,252.6c-0.5-2-3.4-0.4-2,1C72.7,254.6,74.2,254,73.8,252.6z"/>
			</g>
			<g>
				<path class="st3" d="M95.8,292.4c-0.6-1.7-2.3-0.5-2,0.9C94.3,295.1,96.5,294.3,95.8,292.4z"/>
			</g>
			<g>
				<path class="st3" d="M109.3,274.1c-0.7,1.1-2.8,1-2.4-0.6C107.2,272.2,110.2,272.6,109.3,274.1z"/>
			</g>
			<g>
				<path class="st3" d="M119.4,259.3c-0.3-1.4-3.8,0.7-2.4,1.6C117.9,261.4,119.7,260.3,119.4,259.3z"/>
			</g>
		</g>
		<g>
			<path class="st3" d="M67,272.8c0,0,0.1,0.1,0.2,0.2c0.1,0.1,0.2,0.2,0.2,0.4c0.1,0.2,0.1,0.4,0,0.5c-0.1,0.4-0.5,0.7-1.1,0.9
				c-0.1,0-0.3,0.1-0.4,0.1c-0.1,0-0.1,0-0.2,0l0,0h0l0,0l0,0l-0.1,0c-0.3-0.1-0.5-0.2-0.8-0.4c-0.2-0.2-0.4-0.4-0.5-0.7
				c-0.1-0.3-0.1-0.6,0.1-0.9c0.1-0.1,0.2-0.2,0.3-0.3c0.1-0.1,0.2-0.1,0.4-0.1c0.1,0,0.2,0,0.3,0c0.1,0,0.2,0,0.3,0
				c0.2,0,0.4,0.1,0.5,0.1c0.2,0,0.3,0.1,0.4,0.1C66.8,272.6,66.9,272.7,67,272.8C66.9,272.7,66.9,272.7,67,272.8z"/>
		</g>
		<g>
			<path class="st3" d="M71.1,263.7c0,0.1,0,0.2-0.1,0.4c0,0.1-0.1,0.1-0.1,0.2c-0.1,0.1-0.1,0.1-0.2,0.2c-0.1,0-0.2,0.1-0.2,0.1
				c-0.1,0-0.2,0.1-0.3,0.1c-0.1,0-0.2,0-0.3,0c-0.1,0-0.2,0-0.3-0.1c-0.2-0.1-0.4-0.3-0.5-0.5c-0.1-0.2-0.3-0.4-0.3-0.7
				c-0.1-0.2-0.1-0.5,0-0.8c0.1-0.2,0.3-0.4,0.6-0.5c0.3,0,0.5,0,0.7,0.1c0.2,0.1,0.4,0.2,0.5,0.3c0.3,0.2,0.5,0.4,0.6,0.6
				c0,0.1,0.1,0.2,0.1,0.2c0,0.1,0,0.1,0,0.1S71.1,263.5,71.1,263.7z"/>
		</g>
		<path class="st13" d="M89.1,269.5c-1.1-4.4-2.4-8.4-4.4-12.5c-0.9-2-4-9.8-6.1-8c-0.2,1.5,0.7,3.3,1.5,4.6
			c2.3,4.1,3.2,6.1,5.8,10.2L89.1,269.5z"/>
		<path class="st13" d="M82.8,274.6c-1-1.6-7.2-8.6-9.6-8.5c-3.2,0.4,3.6,5.1,4.2,5.5L82.8,274.6z"/>
		<path class="st13" d="M82.1,279.9c-3,1-5.9,0.5-8.8,1.2c-1.7,0.4-2.2,1.9-0.5,2.5c2.2,0.7,6.5-1.3,8.1-2.6L82.1,279.9z"/>
		<path class="st13" d="M79.9,247.1l-0.9-1.6c-0.3-0.5-0.6-1.1-1-1.5c-0.4-0.5-0.8-0.9-1.4-1.3c-0.3-0.2-0.5-0.4-0.8-0.6
			c-0.3-0.2-0.5-0.3-0.8-0.5c-0.6-0.3-1.2-0.5-1.9-0.5c-0.7,0-1.4,0.3-1.8,0.8c-0.5,0.5-0.8,1.1-1,1.7c-0.2,0.6-0.4,1.2-0.5,1.8
			l-0.3,1.8c-0.1,0.6-0.2,1.2-0.2,1.9c-0.1,1.2-0.1,2.5,0,3.7c0,0.6,0.1,1.2,0.2,1.8c0.1,0.6,0.2,1.3,0.3,1.9
			c0.2,0.6,0.3,1.2,0.6,1.8l0.8,1.7l0.6-0.8c-0.8-0.1-1.6,0.1-2.3,0.3c-0.7,0.2-1.3,0.6-1.9,1c-0.6,0.4-1.2,0.8-1.7,1.2
			c-0.3,0.2-0.5,0.5-0.8,0.8l-0.2,0.2l0,0.1l-0.1,0.1l-0.1,0.1l-0.3,0.4c-0.4,0.5-0.7,1.2-1.1,1.9c-0.3,0.7-0.5,1.4-0.6,2.1
			c-0.1,0.4-0.1,0.7-0.2,1.1c0,0.4-0.1,0.7-0.1,1.1c0,0.7,0,1.4,0.1,2.1c0.1,0.7,0.1,1.4,0.2,2.1c0,0.7,0.2,1.4,0.3,2.1
			c0.1,0.7,0.3,1.4,0.5,2c0.2,0.7,0.5,1.3,0.7,2c0.2,0.7,0.6,1.2,1,1.9c0.3,0.6,0.8,1.1,1.2,1.7c0.5,0.5,0.9,1,1.4,1.5l1.6,1.3
			l-1.5-1.4c-0.4-0.5-0.9-1-1.3-1.6c-0.4-0.6-0.8-1.1-1.1-1.7c-0.3-0.6-0.6-1.2-0.8-1.8c-0.2-0.6-0.5-1.3-0.6-1.9
			c-0.2-0.7-0.3-1.3-0.4-2c-0.1-0.7-0.2-1.3-0.2-2c0-0.7-0.1-1.4-0.1-2c0-0.7,0-1.4,0-2c0-0.3,0-0.7,0.1-1c0-0.3,0.1-0.7,0.2-1
			c0.1-0.6,0.4-1.3,0.6-1.9c0.3-0.6,0.6-1.1,1-1.7l0.3-0.4l0.1-0.1c0,0,0-0.1,0,0l0,0l0.2-0.2c0.2-0.2,0.4-0.4,0.7-0.7
			c0.5-0.4,1-0.8,1.6-1.1c0.6-0.3,1.2-0.6,1.8-0.8c0.6-0.2,1.2-0.3,1.7-0.3l1,0l-0.4-0.8l-0.7-1.6c-0.2-0.5-0.3-1.1-0.5-1.7
			c-0.2-0.6-0.2-1.2-0.3-1.7c-0.1-0.6-0.1-1.2-0.2-1.8c-0.1-1.2-0.1-2.4,0-3.6c0.1-0.6,0.1-1.2,0.1-1.8l0.3-1.8
			c0.2-1.2,0.5-2.4,1.2-3.2c0.3-0.4,0.8-0.7,1.4-0.7c0.5,0,1.1,0.1,1.6,0.4c0.3,0.1,0.5,0.3,0.8,0.4c0.2,0.1,0.5,0.3,0.7,0.5
			c0.5,0.3,0.9,0.7,1.4,1.1c0.4,0.4,0.7,0.9,1.1,1.4L79.9,247.1z"/>
		<path class="st13" d="M77.1,276.7c0,0-0.4-0.2-0.9-0.3c-0.1,0-0.3-0.1-0.4-0.1c-0.1,0-0.3-0.1-0.4-0.1c-0.3-0.1-0.6-0.2-0.9-0.2
			c-0.7-0.2-1.4-0.2-1.9-0.2c-0.5,0-0.9,0.1-0.9,0.1s0.3,0.3,0.8,0.5c0.5,0.2,1.1,0.5,1.8,0.7c0.4,0,0.8,0.1,1.1,0.1
			c0.4,0,0.7,0,0.9-0.1C76.7,276.9,77.1,276.7,77.1,276.7z"/>
		<path class="st13" d="M79.1,260.5c0,0,0-0.4-0.1-0.8c-0.1-0.5-0.4-1-0.7-1.5c-0.4-0.5-0.9-0.9-1.3-1.2c-0.4-0.3-0.7-0.4-0.7-0.4
			s0,0.4,0.2,0.8c0.2,0.4,0.5,0.9,0.8,1.4c0.3,0.5,0.7,1,1.1,1.3C78.8,260.4,79.1,260.5,79.1,260.5z"/>
		<path class="st13" d="M99.8,272.1c1.3-0.9,7.3-2.5,9-3.4c1.4-0.6,4.2-2.1,4.8-3.9c0.8-2.5-2.9-0.2-4.1,0.5
			c-2.2,1.1-2.9,1.6-4.8,3.2L99.8,272.1z"/>
		<path class="st13" d="M97.4,280.4c0.9-0.6,3.3-1,3.8,0.1c0,1.7-1.8,0.6-2.9,0.2L97.4,280.4z"/>
		<path class="st13" d="M91.2,283.9c1.6,0.8,4.9,2.6,5,4.5c0.4,4-4.2-2.5-4.6-3.1L91.2,283.9z"/>
		<path class="st13" d="M98.9,285.8c0,0-0.1-0.2-0.3-0.5c-0.1-0.1-0.2-0.2-0.3-0.3c-0.1-0.1-0.2-0.2-0.3-0.3
			c-0.3-0.2-0.6-0.3-0.9-0.3c-0.3,0-0.5,0.1-0.5,0.1s0,0.2,0.2,0.5c0.1,0.2,0.4,0.5,0.6,0.7c0.3,0.2,0.7,0.3,1,0.3
			C98.7,285.9,98.9,285.8,98.9,285.8z"/>
		<path class="st13" d="M110.2,270.2c0,0-0.2-0.1-0.5-0.2c-0.3-0.1-0.7,0-1.1,0.1c-0.4,0.1-0.7,0.3-0.9,0.5
			c-0.2,0.2-0.4,0.4-0.4,0.4s0.2,0.1,0.5,0.2c0.3,0.1,0.7,0,1.1-0.1c0.4-0.1,0.7-0.3,0.9-0.5C110,270.5,110.2,270.2,110.2,270.2z"/>
		<path class="st13" d="M120.9,257.2c0,0,0.2-0.1,0.6,0c0.2,0,0.4,0.2,0.6,0.4c0.2,0.2,0.2,0.5,0.3,0.9c0,0.7-0.1,1.6-0.5,2.5
			c-0.2,0.5-0.5,0.9-0.7,1.5c-0.3,0.5-0.5,1.1-0.8,1.6c-0.3,0.5-0.7,1.1-1.1,1.6c-0.4,0.5-0.8,1.1-1.3,1.6c-0.5,0.5-1,1.1-1.5,1.6
			c-0.5,0.5-1.1,1.1-1.6,1.6c-0.6,0.5-1.2,1-1.8,1.5c-0.7,0.5-1.3,0.9-2,1.4c-1.4,1-2.7,1.9-4.1,2.9c-1.3,1.1-2.7,2.2-3.5,3.9
			c-0.4,0.9-0.5,1.7-0.7,2.5c-0.2,0.8-0.4,1.5-0.6,2.3c-0.9,3-1.7,5.8-3,8c-0.6,1.1-1.3,2-2.1,2.5c-0.8,0.6-1.7,0.6-2.4,0.3
			c-0.7-0.3-1.1-0.6-1.4-0.9c-0.3-0.3-0.5-0.4-0.5-0.4s0.1,0.2,0.4,0.5c0.3,0.3,0.7,0.7,1.4,1c0.3,0.2,0.8,0.3,1.2,0.3
			c0.5,0,1-0.2,1.4-0.4c0.9-0.5,1.7-1.5,2.4-2.6c1.4-2.2,2.4-5,3.4-8c0.2-0.8,0.4-1.5,0.7-2.3c0.2-0.8,0.4-1.6,0.7-2.3
			c0.6-1.4,1.9-2.5,3.2-3.5c1.3-1,2.7-2,4-3c0.7-0.5,1.3-1,2-1.5c0.6-0.5,1.3-1,1.9-1.6c0.5-0.6,1.1-1.1,1.6-1.7
			c0.5-0.6,1-1.2,1.4-1.7c0.4-0.6,0.8-1.2,1.2-1.7c0.4-0.6,0.7-1.2,1-1.7c0.3-0.6,0.5-1.1,0.8-1.7c0.2-0.5,0.4-1,0.6-1.5
			c0.3-1,0.4-1.9,0.3-2.7c-0.1-0.4-0.2-0.7-0.4-0.9c-0.2-0.2-0.5-0.3-0.7-0.3C121.1,257.1,120.9,257.2,120.9,257.2z"/>
	</g>
</g>
<g id="DESIGNED_BY_FREEPIK">
</g>
</svg>
