<?xml version="1.0" encoding="utf-8"?>
<!-- Generator: Adobe Illustrator 22.1.0, SVG Export Plug-In . SVG Version: 6.00 Build 0)  -->
<svg version="1.1" xmlns="http://www.w3.org/2000/svg" xmlns:xlink="http://www.w3.org/1999/xlink" x="0px" y="0px"
	 viewBox="0 0 65 76" style="enable-background:new 0 0 65 76;" xml:space="preserve">
<style type="text/css">
	.st0{fill:#8F81EF;}
	.st1{fill:#B5B7F9;}
	.st2{fill:#7D5338;}
	.st3{fill:#FFFFFF;}
	.st4{fill:#AD80D2;}
	.st5{fill:#C3B0DD;}
	.st6{fill:#00849B;}
	.st7{fill:#3BA5A7;}
	.st8{fill:#FF9B80;}
	.st9{fill:#FFC0B5;}
	.st10{fill:#7DA5EE;}
	.st11{fill:#AFDAF8;}
</style>
<g id="BACKGROUND_2">
</g>
<g id="BACKGROUND_1">
	<g>
		<g>
			<g>
				<path class="st0" d="M30.3,35c0.6,2.9,0.6,6.2-0.9,8.8c-1.7,3-4.6,4.3-7.8,5.2c-2,0.6-3.8,0.7-5.9,0.7c-4,0.1-6.8-2.5-7.5-6.5
					C7.7,39.5,8,34.6,9.9,31.2c1.2-2.1,4-3.6,6.5-3c-2.2-3.5,0-9.5,2.7-12.1c4.4-4.1,7.3,3.5,8.2,6.8C28.4,27,29.5,30.9,30.3,35z"/>
			</g>
			<g>
				<path class="st1" d="M26.5,46.9c-0.9-0.3-1.8-1-2.5-1.7c-0.4-0.4-1.8-2.2-1.2-2.8c0.9-0.9,4.2,3.2,4.7,3.9c-0.6-0.8-1-2-1.5-3
					c-1-1.8-4.4-7.8-2.7-9.8c1.4-1.7,3.5,2,4,2.9c0.6,1.1,1.1,2.4,1.5,3.7c0.2,0.6,1.1,2.7,0.7,3.2"/>
			</g>
			<g>
				<path class="st0" d="M32.5,43.5c-0.3,0.2-0.7,0.4-1,0.6c-1.3,0.7-2.6,1.6-3.5,2.8c-1.1,1.6-1,5.5-1,7.4c0,2.1-0.2,4.7,1.4,6.3
					c1.6,1.6,4.5,0.4,6.1-0.6c1.9-1.2,3.2-4.7,4-6.6c0.6-1.3,1.1-2.8,1.3-4.2c3.7-1.4,4.8-1.7,6.8-2.7c2.3-1.2,4.4-2.7,6.4-4.4
					c1.8-1.5,3.5-3.4,4.4-5.6c0.9-2.2-1.8-3.1-3.6-3c-3.6,0.3-7,2.1-10.1,4c-3,1.8-6,3.4-9.2,4.9C33.9,42.6,33.2,43.1,32.5,43.5z"/>
			</g>
			<g>
				<path class="st1" d="M33.7,49.2c1.3-1.6-3.9-2.7-4.9-2.7c1.9,0.2,3.8,0.9,5.7,0.5c1.9-0.3,4.1-1.3,5.6-2.5c2-1.6-0.5-2.2-2-2
					c-2.1,0.3-4.7,1-6.7,1.8c-1.6,0.6-4.3,2.1-2.5,3.8C29.9,49,32.6,50.6,33.7,49.2z"/>
			</g>
			<g>
				<g>
					<path class="st1" d="M10.4,41.7c1.3,0.6,3.2,1.4,3.1,2.8c-0.1,0.9-1,1.3-2,1.4c-0.5-1.3-0.9-2.5-1.1-3.9
						C10.4,42,10.4,41.8,10.4,41.7z"/>
					<path class="st1" d="M12.8,31.9c1.3,0.9,4,3.7,1.9,4.9c-1.1,0.6-2.9,0-4.1-0.5c0.4-1.5,1.1-3,2.2-4.3
						C12.7,32,12.8,31.9,12.8,31.9z"/>
					<path class="st1" d="M17.4,25.8c1.2,1.3,3.3,3.8,2.3,4.9c-0.8,0.8-2.6,0-3.7-0.5c0.8-0.1,1.6-0.2,2.5-0.4
						C17.6,29,17.4,27.3,17.4,25.8z"/>
					<path class="st1" d="M20.7,17.1c1,1.1,2.7,4.3,1.4,5.4c-0.9,0.7-2.9-0.1-3.8-0.9c0.3-0.8,0.6-1.5,0.9-2.3
						C19.5,18.6,20,17.8,20.7,17.1z"/>
				</g>
			</g>
			<g>
				<g>
					<path class="st1" d="M34.3,56.6c-0.3,0.3-0.5,0.8-0.9,1.1c-0.7-2.3,1.2-4.7,3-4.1C35.8,54.6,35.1,55.8,34.3,56.6z"/>
					<path class="st1" d="M37.6,50.9c-0.3-0.7-0.5-1.4-0.4-2.1c0.2-1.7,2.7-2.6,4.4-2.1c-0.5,0.2-1,0.5-1.6,0.8
						C38.6,48.2,38.1,49.4,37.6,50.9z"/>
					<path class="st1" d="M46,44.3c-0.4-0.4-0.8-0.9-0.7-1.4c0.4-1.9,3.5-2.2,5.4-2c-0.2,0.2-0.5,0.4-0.7,0.6
						C48.8,42.6,47.4,43.5,46,44.3z"/>
					<path class="st1" d="M52,39.6c-0.8-0.1-1.5-0.6-1.2-1.6c0.3-1,2.4-1.9,3.6-2.2c-0.2,0.6-0.5,1.1-0.8,1.6
						C53.2,38.3,52.7,39,52,39.6z"/>
				</g>
			</g>
			<path class="st2" d="M23.7,48.5c1.7-1.2,3-2.5,4.4-4c1.5-1.5,2.4-3.4,3.8-5c0.3-0.3,0.8-0.7,1.2-0.8c0.4-1.2,0.5-2.6,0.4-3.6
				c0-1.1-0.6-2.8-1.2-3.7c-0.1-0.1,0-0.2,0.1-0.3c0.1,0,0.2,0,0.3,0.1c0.5,1,1.2,2.7,1.2,3.9c0.1,1.2-0.1,2.5-0.4,3.5
				c0.5-0.1,1,0.1,1.2,0.8c1.7-2.4,1.5-5.5,1.3-6.9c0-0.1,0.1-0.2,0.2-0.2c0.1,0,0.2,0.1,0.2,0.2c0.2,1.5,0.4,5-1.6,7.5
				c-0.1,1.4-1.5,3-2.3,4c-2,2.7-5.2,5.3-8.2,6.9c-0.6,0.3-2.1,0.8-2.5-0.1C21.5,49.8,23.1,49,23.7,48.5z"/>
		</g>
		<g>
			<g>
				<path class="st3" d="M13.1,38.6c-0.3-0.3-1.2-0.6-1.6-0.4c-0.7,0.4-0.2,1.4,0.4,1.6C12.8,40.1,13.9,39.4,13.1,38.6z"/>
			</g>
			<g>
				<path class="st3" d="M17.3,32.5c0-0.6-1-1.4-1.5-0.9c-0.3,0.4,0,1.2,0.3,1.5C16.7,33.4,17.3,33.1,17.3,32.5z"/>
			</g>
			<g>
				<path class="st3" d="M20.5,25.2c-0.1-1.5-2.4-0.7-1.6,0.5C19.5,26.4,20.6,26.2,20.5,25.2z"/>
			</g>
			<g>
				<path class="st3" d="M31.3,56.2c-0.3-1.3-1.6-0.7-1.5,0.4C29.9,57.9,31.6,57.7,31.3,56.2z"/>
			</g>
			<g>
				<path class="st3" d="M43.2,44.8c-0.6,0.7-2.1,0.4-1.6-0.7C42,43.2,44.1,43.8,43.2,44.8z"/>
			</g>
			<g>
				<path class="st3" d="M52.2,35.5c-0.1-1-2.8,0.1-1.9,0.8C50.9,36.8,52.3,36.2,52.2,35.5z"/>
			</g>
		</g>
		<g>
			<path class="st3" d="M13.2,38.7c0,0,0.1,0.1,0.1,0.2c0,0.1,0.1,0.2,0.1,0.3c0,0.1,0,0.3-0.1,0.4c-0.1,0.3-0.5,0.5-0.9,0.5
				c-0.1,0-0.2,0-0.3,0c-0.1,0-0.1,0-0.1,0l0,0l0,0l0,0l0,0l-0.1,0c-0.2-0.1-0.4-0.2-0.5-0.4c-0.1-0.2-0.2-0.4-0.3-0.6
				c0-0.2,0-0.5,0.2-0.6c0.1-0.1,0.2-0.1,0.2-0.2c0.1,0,0.2-0.1,0.3-0.1c0.1,0,0.2,0,0.2,0c0.1,0,0.2,0,0.2,0c0.1,0,0.3,0.1,0.4,0.1
				c0.1,0.1,0.2,0.1,0.3,0.1C13.1,38.5,13.1,38.6,13.2,38.7C13.1,38.6,13.2,38.6,13.2,38.7z"/>
		</g>
		<g>
			<path class="st3" d="M17.3,32.7c0,0.1,0,0.2-0.1,0.2c0,0-0.1,0.1-0.1,0.1c0,0-0.1,0.1-0.2,0.1c-0.1,0-0.1,0.1-0.2,0.1
				c-0.1,0-0.1,0-0.2,0c-0.1,0-0.2,0-0.2-0.1c-0.1,0-0.1,0-0.2-0.1c-0.1-0.1-0.2-0.3-0.3-0.4c-0.1-0.2-0.1-0.3-0.2-0.5
				c0-0.2,0-0.4,0.1-0.6c0.1-0.2,0.3-0.3,0.5-0.3c0.2,0,0.3,0.1,0.5,0.1c0.1,0.1,0.2,0.2,0.3,0.3c0.2,0.2,0.3,0.4,0.3,0.5
				c0,0.1,0,0.1,0,0.2c0,0,0,0.1,0,0.1S17.3,32.6,17.3,32.7z"/>
		</g>
		<path class="st1" d="M29.4,39.1c-0.2-3.3-0.7-6.3-1.6-9.4c-0.4-1.5-1.7-7.5-3.4-6.5c-0.3,1.1,0.1,2.4,0.5,3.4
			c1.1,3.2,1.6,4.7,2.9,8L29.4,39.1z"/>
		<path class="st1" d="M24.2,41.9c-0.5-1.3-4.1-7.1-5.8-7.2c-2.4-0.1,1.9,4.1,2.3,4.4L24.2,41.9z"/>
		<path class="st1" d="M23.1,45.6c-2.2,0.3-4.3-0.3-6.5-0.2c-1.3,0.1-1.8,1.1-0.6,1.7c1.5,0.8,4.8-0.1,6.1-0.9L23.1,45.6z"/>
		<path class="st1" d="M25.6,22L25,20.8c-0.2-0.4-0.4-0.8-0.6-1.1c-0.3-0.3-0.5-0.7-0.9-1c-0.2-0.1-0.3-0.3-0.5-0.4
			c-0.2-0.1-0.4-0.3-0.5-0.4c-0.3-0.2-0.7-0.4-1.1-0.4c-0.4,0-0.7,0.1-1,0.3c-0.6,0.5-0.9,1.3-1.2,2.1l-0.7,2.5
			c-0.1,0.4-0.1,0.8-0.2,1.3l-0.2,1.3c0,0.4-0.1,0.9-0.1,1.3c0,0.4,0,0.8,0,1.2c0.1,0.4,0.1,0.8,0.2,1.2l0.3,1.2l0.3,1l-1-0.2
			c-0.3-0.1-0.7-0.1-1.2,0c-0.4,0.1-0.9,0.2-1.3,0.4c-0.4,0.2-0.9,0.4-1.3,0.6c-0.2,0.1-0.4,0.2-0.6,0.4L13.5,32l0,0c0,0,0,0,0,0
			l-0.1,0.1l-0.3,0.3c-0.4,0.4-0.6,0.7-0.9,1c-0.2,0.4-0.5,0.8-0.6,1.2c-0.2,0.4-0.3,0.9-0.4,1.3c-0.1,0.5-0.2,0.9-0.2,1.4l-0.2,1.5
			c-0.1,0.5-0.1,1-0.1,1.5c0,0.5,0,1,0,1.4c0,0.5,0.1,1,0.2,1.4c0,0.5,0.2,0.9,0.3,1.4c0.1,0.5,0.3,0.9,0.5,1.4
			c0.2,0.4,0.5,0.9,0.7,1.3l0.9,1.2l-1-1.1c-0.3-0.4-0.6-0.8-0.9-1.2c-0.2-0.4-0.5-0.9-0.7-1.4c-0.2-0.5-0.4-0.9-0.5-1.4
			c-0.1-0.5-0.2-1-0.3-1.5c-0.1-0.5-0.1-1-0.1-1.5c0-0.5,0-1,0-1.5l0.1-1.5c0-0.5,0.1-1,0.2-1.5c0.1-0.5,0.2-1,0.4-1.5
			c0.2-0.5,0.4-1,0.7-1.4c0.3-0.5,0.7-0.9,1-1.2l0.3-0.3l0.1-0.1l0.1-0.1l0,0l0.2-0.1c0.2-0.2,0.5-0.3,0.7-0.5
			c0.5-0.3,0.9-0.5,1.4-0.7c0.5-0.2,1-0.4,1.5-0.4c0.5-0.1,1.1-0.1,1.8,0.1l-0.8,0.8l-0.4-1.4C17,28.4,17,28,17,27.5
			c-0.1-0.5,0-0.9,0-1.4c0-0.5,0.1-0.9,0.1-1.3l0.2-1.4c0.1-0.4,0.1-0.9,0.3-1.3l0.4-1.3l0.4-1.3c0.4-0.8,0.7-1.7,1.6-2.4
			c0.4-0.3,1-0.5,1.5-0.4c0.5,0.1,1,0.3,1.3,0.6c0.4,0.3,0.7,0.6,1,1c0.3,0.3,0.6,0.7,0.8,1.1c0.2,0.4,0.4,0.8,0.5,1.2L25.6,22z"/>
		<path class="st1" d="M19.9,42.7c0,0-0.3,0.2-0.7,0.2C19,43,18.8,43,18.6,43c-0.3,0-0.5-0.1-0.8-0.2c-0.5-0.2-0.9-0.5-1.2-0.8
			c-0.3-0.3-0.4-0.6-0.4-0.6s0.3-0.1,0.7-0.1c0.4,0,0.9,0.1,1.4,0.3c0.2,0.1,0.4,0.2,0.6,0.3c0.2,0.1,0.4,0.2,0.6,0.3
			C19.7,42.4,19.9,42.7,19.9,42.7z"/>
		<path class="st1" d="M23.4,31.4c0,0-0.3-0.1-0.5-0.4c-0.3-0.2-0.5-0.6-0.7-1c-0.2-0.4-0.3-0.8-0.3-1.1c0-0.3,0-0.7,0-0.7
			s0.3,0.1,0.6,0.3c0.3,0.2,0.6,0.6,0.8,1c0.2,0.4,0.2,0.8,0.2,1.2C23.5,31.2,23.4,31.4,23.4,31.4z"/>
		<path class="st1" d="M36.7,42.2c1-0.5,5.5-0.9,6.9-1.3c1-0.2,3.2-1,3.9-2.2c0.8-1.7-2.1-0.5-3-0.2c-1.7,0.5-2.2,0.8-3.8,1.7
			L36.7,42.2z"/>
		<path class="st1" d="M34,47.8c0.7-0.3,2.5-0.3,2.7,0.5c-0.2,1.2-1.4,0.2-2.1-0.2L34,47.8z"/>
		<path class="st1" d="M29.1,49.6c1,0.7,3.2,2.4,3,3.8c-0.2,2.9-2.7-2.3-2.9-2.8L29.1,49.6z"/>
		<path class="st1" d="M34.3,51.9c0,0-0.2,0.1-0.4,0.2c-0.2,0-0.5-0.1-0.7-0.2c-0.2-0.2-0.3-0.4-0.3-0.6c0-0.2,0-0.5,0-0.5
			s0.2-0.1,0.5-0.1c0.2,0,0.5,0.1,0.7,0.2c0.1,0.1,0.1,0.1,0.2,0.2c0,0.1,0.1,0.2,0.1,0.3C34.4,51.6,34.3,51.9,34.3,51.9z"/>
		<path class="st1" d="M44.3,42.2c0,0-0.1,0.2-0.3,0.4c-0.2,0.2-0.4,0.3-0.7,0.3c-0.3,0-0.6,0-0.8-0.2c-0.2-0.1-0.4-0.3-0.4-0.3
			s0.1-0.2,0.3-0.4c0.2-0.2,0.4-0.3,0.7-0.3c0.3,0,0.6,0,0.8,0.2C44.1,42,44.3,42.2,44.3,42.2z"/>
		<path class="st1" d="M53.6,34.2c0,0,0.2,0,0.4,0c0.1,0,0.3,0.1,0.5,0.3c0.1,0.2,0.2,0.5,0.2,0.7c0,0.6-0.2,1.2-0.5,1.9
			c-0.4,0.7-0.8,1.4-1.3,2.1c-0.3,0.4-0.6,0.8-0.9,1.1c-0.4,0.4-0.7,0.7-1.1,1.1c-0.4,0.4-0.8,0.7-1.2,1.1c-0.5,0.4-0.9,0.7-1.4,1
			c-0.5,0.3-1,0.6-1.6,0.9c-0.5,0.3-1.1,0.5-1.6,0.8c-1.1,0.5-2.2,1-3.2,1.6c-1,0.5-2.1,1.2-2.6,2c-0.3,0.4-0.5,1-0.8,1.5
			c-0.3,0.5-0.5,1.1-0.8,1.6c-1,2.1-2.2,3.9-3.5,5.3c-0.6,0.7-1.3,1.3-2.1,1.5c-0.8,0.3-1.6,0.1-2-0.3c-0.5-0.3-0.7-0.7-0.9-0.9
			c-0.1-0.2-0.2-0.4-0.2-0.4s0.1,0.1,0.3,0.3c0.2,0.2,0.5,0.5,0.9,0.8c0.4,0.3,1.1,0.3,1.7,0c0.6-0.3,1.2-0.9,1.7-1.6
			c1.1-1.4,2.1-3.3,3-5.3c0.2-0.5,0.5-1,0.7-1.6c0.2-0.5,0.4-1.1,0.8-1.7c0.8-1.2,2-1.8,3-2.4c1.1-0.6,2.2-1.1,3.3-1.6
			c0.5-0.2,1.1-0.5,1.6-0.7c0.5-0.3,1-0.5,1.5-0.8c0.5-0.3,0.9-0.6,1.4-0.9c0.4-0.3,0.9-0.6,1.3-1c0.4-0.3,0.8-0.7,1.1-1
			c0.3-0.3,0.6-0.7,1-1c0.3-0.3,0.6-0.7,0.8-1c0.3-0.3,0.5-0.6,0.7-0.9c0.4-0.6,0.6-1.2,0.7-1.7c0.1-0.5-0.1-0.9-0.4-1
			C53.7,34.2,53.6,34.2,53.6,34.2z"/>
	</g>
</g>
<g id="DESIGNED_BY_FREEPIK">
</g>
</svg>
