<?xml version="1.0" encoding="utf-8"?>
<!-- Generator: Adobe Illustrator 22.1.0, SVG Export Plug-In . SVG Version: 6.00 Build 0)  -->
<svg version="1.1" xmlns="http://www.w3.org/2000/svg" xmlns:xlink="http://www.w3.org/1999/xlink" x="0px" y="0px"
	 viewBox="0 0 65 76" style="enable-background:new 0 0 65 76;" xml:space="preserve">
<style type="text/css">
	.st0{fill:#8F81EF;}
	.st1{fill:#B5B7F9;}
	.st2{fill:#7D5338;}
	.st3{fill:#FFFFFF;}
	.st4{fill:#AD80D2;}
	.st5{fill:#C3B0DD;}
	.st6{fill:#00849B;}
	.st7{fill:#3BA5A7;}
	.st8{fill:#FFCC0D;}
	.st9{fill:#FFEA90;}
	.st10{fill:#FF9B80;}
	.st11{fill:#FFC0B5;}
	.st12{fill:#7DA5EE;}
	.st13{fill:#AFDAF8;}
</style>
<g id="BACKGROUND_2">
</g>
<g id="BACKGROUND_1">
	<g>
		<g>
			<g>
				<path class="st8" d="M33.6,34.7c0.7,2.2,0.9,4.7,0,6.9c-1.1,2.4-3.3,3.7-5.6,4.6c-1.5,0.6-2.9,0.8-4.5,1
					c-3.1,0.3-5.4-1.4-6.3-4.5c-0.8-2.8-0.9-6.7,0.3-9.4c0.8-1.8,2.8-3.1,4.8-2.8c-2-2.6-0.7-7.4,1.2-9.6c3.1-3.5,5.9,2.2,6.9,4.7
					C31.5,28.7,32.7,31.7,33.6,34.7z"/>
			</g>
			<g>
				<path class="st9" d="M31.5,44.3c-0.8-0.2-1.5-0.6-2.1-1.1c-0.3-0.3-1.6-1.6-1.1-2.1c0.7-0.7,3.5,2.2,4,2.7
					c-0.5-0.6-0.9-1.5-1.4-2.2c-0.9-1.3-4-5.7-2.8-7.4c1-1.4,2.9,1.3,3.3,1.9c0.6,0.8,1.1,1.8,1.5,2.7c0.2,0.5,1.1,2,0.8,2.4"/>
			</g>
			<g>
				<path class="st8" d="M35.9,41.2c-0.2,0.2-0.5,0.4-0.7,0.5c-1,0.6-1.9,1.4-2.5,2.4c-0.7,1.3-0.4,4.4-0.2,5.8
					c0.2,1.7,0.2,3.6,1.6,4.8c1.4,1.1,3.5,0,4.7-0.9c1.4-1.1,2.1-3.9,2.6-5.5c0.3-1.1,0.6-2.2,0.7-3.4c2.8-1.4,3.6-1.7,5.1-2.6
					c1.7-1.1,3.2-2.4,4.7-3.9c1.3-1.3,2.5-2.9,3-4.7c0.5-1.8-1.6-2.3-3-2.1c-2.8,0.5-5.3,2.2-7.6,3.8c-2.2,1.6-4.4,3.1-6.8,4.5
					C36.9,40.4,36.4,40.8,35.9,41.2z"/>
			</g>
			<g>
				<path class="st9" d="M37.3,45.6c0.9-1.3-3.2-1.8-4-1.8c1.5,0,3,0.4,4.5,0c1.4-0.4,3.1-1.3,4.2-2.4c1.4-1.4-0.6-1.7-1.7-1.4
					c-1.6,0.4-3.6,1.1-5.1,1.9c-1.2,0.6-3.2,1.9-1.6,3.1C34.2,45.7,36.5,46.7,37.3,45.6z"/>
			</g>
			<g>
				<g>
					<path class="st9" d="M18.6,41.5c1,0.4,2.6,0.8,2.7,2c0,0.7-0.7,1.1-1.4,1.3c-0.5-0.9-0.9-1.9-1.2-3
						C18.6,41.7,18.6,41.6,18.6,41.5z"/>
					<path class="st9" d="M19.7,33.7c1.1,0.6,3.4,2.6,1.8,3.6c-0.8,0.6-2.2,0.2-3.2,0C18.5,36.1,18.9,34.9,19.7,33.7
						C19.7,33.7,19.7,33.7,19.7,33.7z"/>
					<path class="st9" d="M22.9,28.6c1,0.9,2.9,2.7,2.1,3.7c-0.5,0.7-2,0.2-2.9-0.1c0.6-0.2,1.3-0.3,1.9-0.5
						C23.3,31.1,23,29.8,22.9,28.6z"/>
					<path class="st9" d="M24.7,21.6c0.8,0.8,2.4,3.2,1.5,4.1c-0.6,0.6-2.3,0.2-3-0.4c0.2-0.6,0.3-1.2,0.5-1.8
						C23.9,22.9,24.3,22.2,24.7,21.6z"/>
				</g>
			</g>
			<g>
				<g>
					<path class="st9" d="M38.3,51.2c-0.2,0.3-0.4,0.7-0.6,0.9c-0.7-1.8,0.6-3.8,2-3.4C39.3,49.6,38.8,50.6,38.3,51.2z"/>
					<path class="st9" d="M40.4,46.6c-0.3-0.5-0.5-1-0.4-1.6c0-1.3,1.9-2.2,3.3-2c-0.4,0.2-0.8,0.5-1.2,0.7
						C41,44.4,40.7,45.4,40.4,46.6z"/>
					<path class="st9" d="M46.4,40.9c-0.4-0.2-0.7-0.7-0.7-1.1c0.1-1.5,2.6-1.9,4.1-1.9c-0.2,0.2-0.3,0.3-0.5,0.5
						C48.5,39.3,47.4,40.1,46.4,40.9z"/>
					<path class="st9" d="M50.8,36.8c-0.7,0-1.2-0.4-1-1.1c0.2-0.8,1.7-1.7,2.6-2c-0.1,0.5-0.3,0.9-0.5,1.3
						C51.6,35.6,51.2,36.2,50.8,36.8z"/>
				</g>
			</g>
			<path class="st2" d="M29.4,45.8c1.2-1,2.1-2.2,3.1-3.4c1-1.3,1.6-2.8,2.6-4.1c0.2-0.3,0.6-0.6,0.9-0.7c0.2-0.9,0.2-2.1,0.1-2.9
				c-0.1-0.8-0.7-2.1-1.2-2.8c0-0.1,0-0.2,0-0.2c0.1,0,0.2,0,0.2,0c0.5,0.7,1.1,2,1.2,2.9c0.1,1,0.1,2,0,2.8c0.4-0.1,0.8,0,1,0.5
				c1.1-2,0.7-4.4,0.5-5.4c0-0.1,0-0.2,0.1-0.2c0.1,0,0.2,0,0.2,0.1c0.3,1.1,0.7,3.8-0.7,5.9c0.1,1.1-1,2.4-1.5,3.3
				c-1.4,2.3-3.6,4.5-5.8,5.9c-0.4,0.3-1.6,0.8-2,0.1C27.8,47,29,46.2,29.4,45.8z"/>
		</g>
		<g>
			<g>
				<path class="st3" d="M20.5,38.9c-0.3-0.2-0.9-0.4-1.2-0.2c-0.5,0.4,0,1.1,0.4,1.2C20.3,40.1,21.1,39.5,20.5,38.9z"/>
			</g>
			<g>
				<path class="st3" d="M23.3,33.8c-0.1-0.4-0.9-1-1.2-0.6c-0.2,0.3,0.1,0.9,0.4,1.1C22.8,34.6,23.3,34.3,23.3,33.8z"/>
			</g>
			<g>
				<path class="st3" d="M25.2,27.9c-0.2-1.2-1.9-0.4-1.2,0.5C24.5,28.9,25.4,28.6,25.2,27.9z"/>
			</g>
			<g>
				<path class="st3" d="M35.9,51.2c-0.3-1-1.3-0.4-1.1,0.4C35,52.6,36.3,52.3,35.9,51.2z"/>
			</g>
			<g>
				<path class="st3" d="M44.3,41.5C43.9,42,42.7,41.9,43,41C43.2,40.3,44.9,40.6,44.3,41.5z"/>
			</g>
			<g>
				<path class="st3" d="M50.6,33.5c-0.1-0.8-2.2,0.2-1.4,0.8C49.7,34.7,50.7,34.1,50.6,33.5z"/>
			</g>
		</g>
		<g>
			<path class="st3" d="M20.5,38.9c0,0,0.1,0.1,0.1,0.1c0,0.1,0.1,0.1,0.1,0.2c0,0.1,0,0.2,0,0.3c-0.1,0.2-0.3,0.4-0.6,0.5
				c-0.1,0-0.2,0-0.2,0c0,0-0.1,0-0.1,0l0,0h0l0,0l0,0l-0.1,0c-0.2-0.1-0.3-0.2-0.4-0.3c-0.1-0.1-0.2-0.3-0.2-0.4
				c0-0.2,0-0.4,0.1-0.5c0.1-0.1,0.1-0.1,0.2-0.1c0.1,0,0.1-0.1,0.2-0.1c0.1,0,0.1,0,0.2,0c0.1,0,0.1,0,0.2,0c0.1,0,0.2,0,0.3,0.1
				c0.1,0,0.2,0.1,0.2,0.1C20.4,38.8,20.5,38.9,20.5,38.9C20.5,38.9,20.5,38.9,20.5,38.9z"/>
		</g>
		<g>
			<path class="st3" d="M23.3,34c0,0.1,0,0.1-0.1,0.2c0,0,0,0.1-0.1,0.1c0,0-0.1,0.1-0.1,0.1c0,0-0.1,0-0.1,0.1c-0.1,0-0.1,0-0.2,0
				c-0.1,0-0.1,0-0.2,0c-0.1,0-0.1,0-0.2-0.1c-0.1-0.1-0.2-0.2-0.3-0.3c-0.1-0.1-0.1-0.2-0.2-0.4c0-0.1,0-0.3,0-0.5
				c0.1-0.1,0.2-0.2,0.4-0.2c0.1,0,0.3,0,0.4,0.1c0.1,0.1,0.2,0.1,0.3,0.2c0.2,0.1,0.2,0.3,0.3,0.4c0,0.1,0,0.1,0,0.1c0,0,0,0,0,0
				S23.3,33.9,23.3,34z"/>
		</g>
		<path class="st9" d="M33.1,38c-0.4-2.5-1-4.8-1.9-7.2c-0.4-1.1-1.9-5.7-3.1-4.8c-0.2,0.9,0.3,1.9,0.6,2.6c1.1,2.4,1.6,3.6,2.8,6
			L33.1,38z"/>
		<path class="st9" d="M29.3,40.6c-0.5-0.9-3.7-5.2-5-5.2c-1.8,0.1,1.8,3,2.1,3.3L29.3,40.6z"/>
		<path class="st9" d="M28.8,43.6c-1.7,0.4-3.3,0.1-5,0.3c-1,0.2-1.3,1-0.4,1.4c1.2,0.5,3.7-0.4,4.7-1.1L28.8,43.6z"/>
		<path class="st9" d="M28.9,25l-0.5-0.9c-0.2-0.3-0.4-0.6-0.6-0.8c-0.2-0.2-0.4-0.5-0.7-0.7c-0.1-0.1-0.3-0.2-0.4-0.3
			c-0.1-0.1-0.3-0.2-0.4-0.3c-0.3-0.1-0.6-0.2-0.9-0.2c-0.3,0-0.5,0.1-0.7,0.3c-0.4,0.4-0.6,1.1-0.8,1.7l-0.4,2
			c-0.1,0.3,0,0.7-0.1,1l-0.1,1c0,0.3,0,0.7,0,1c0,0.3,0,0.6,0.1,1c0.1,0.3,0.1,0.6,0.2,0.9l0.3,0.9l0.3,0.7l-0.8-0.1
			c-0.3,0-0.6,0-0.9,0.1c-0.3,0.1-0.7,0.2-1,0.4c-0.3,0.2-0.6,0.3-0.9,0.6c-0.1,0.1-0.3,0.2-0.4,0.3l-0.1,0.1l0,0c0,0,0,0,0,0l0,0.1
			L20,34.1c-0.3,0.3-0.4,0.6-0.6,0.9c-0.2,0.3-0.3,0.6-0.4,1c-0.1,0.3-0.2,0.7-0.2,1.1c0,0.4-0.1,0.7-0.1,1.1l0,1.2
			c0,0.4,0,0.8,0,1.1c0,0.4,0.1,0.7,0.1,1.1c0,0.4,0.2,0.7,0.2,1.1c0.1,0.4,0.2,0.7,0.4,1.1c0.1,0.4,0.3,0.7,0.5,1
			c0.2,0.3,0.4,0.6,0.6,1l0.8,0.9l-0.9-0.8c-0.2-0.3-0.5-0.6-0.8-0.9c-0.2-0.3-0.4-0.6-0.6-1c-0.2-0.4-0.4-0.7-0.5-1.1
			c-0.1-0.4-0.3-0.8-0.3-1.1c-0.1-0.4-0.2-0.8-0.2-1.2c-0.1-0.4-0.1-0.8-0.1-1.2l0-1.2c0-0.4,0-0.8,0-1.2c0-0.4,0.1-0.8,0.2-1.2
			c0.1-0.4,0.3-0.8,0.4-1.2c0.2-0.4,0.4-0.8,0.7-1l0.2-0.2l0-0.1l0,0l0,0l0.1-0.1c0.2-0.2,0.3-0.3,0.5-0.4c0.3-0.2,0.7-0.5,1.1-0.6
			c0.4-0.2,0.8-0.4,1.2-0.5c0.4-0.1,0.9-0.2,1.4-0.1L23.3,32l-0.4-1c-0.1-0.3-0.2-0.7-0.2-1.1c-0.1-0.4-0.1-0.7-0.1-1.1
			c0-0.4,0-0.7,0-1.1l0.1-1.1c0-0.4,0-0.7,0.1-1.1l0.2-1l0.2-1c0.2-0.7,0.4-1.4,1-2c0.3-0.3,0.7-0.4,1.1-0.4c0.4,0,0.8,0.2,1.1,0.4
			c0.3,0.2,0.6,0.4,0.8,0.7c0.3,0.2,0.5,0.5,0.7,0.8c0.2,0.3,0.4,0.6,0.5,0.9L28.9,25z"/>
		<path class="st9" d="M26.1,41.5c0,0-0.2,0.1-0.5,0.2c-0.2,0.1-0.3,0.1-0.5,0.1c-0.2,0-0.4,0-0.6-0.1c-0.4-0.1-0.7-0.3-1-0.5
			c-0.2-0.2-0.4-0.4-0.4-0.4s0.2-0.1,0.6-0.1c0.3,0,0.7,0,1.1,0.1c0.2,0,0.3,0.1,0.5,0.2c0.1,0.1,0.3,0.1,0.5,0.2
			C25.9,41.4,26.1,41.5,26.1,41.5z"/>
		<path class="st9" d="M27.9,32.5c0,0-0.2-0.1-0.4-0.2c-0.2-0.2-0.5-0.4-0.6-0.7c-0.2-0.3-0.3-0.6-0.3-0.8c0-0.3,0-0.5,0-0.5
			s0.2,0,0.5,0.2c0.2,0.1,0.5,0.4,0.7,0.7c0.2,0.3,0.2,0.6,0.3,0.9C28,32.3,27.9,32.5,27.9,32.5z"/>
		<path class="st9" d="M39.1,39.9c0.8-0.4,4.2-1.1,5.2-1.5c0.8-0.3,2.4-1,2.8-2c0.5-1.4-1.6-0.2-2.3,0.1c-1.3,0.5-1.7,0.8-2.8,1.6
			L39.1,39.9z"/>
		<path class="st9" d="M37.4,44.5c0.5-0.3,1.9-0.4,2.1,0.2c-0.1,0.9-1.1,0.3-1.7,0L37.4,44.5z"/>
		<path class="st9" d="M33.7,46.2c0.9,0.5,2.6,1.7,2.6,2.7c0.1,2.3-2.3-1.6-2.4-1.9L33.7,46.2z"/>
		<path class="st9" d="M38,47.6c0,0-0.1,0.1-0.3,0.2c-0.2,0-0.4,0-0.6-0.1c-0.2-0.1-0.3-0.3-0.3-0.5c0-0.2,0-0.4,0-0.4
			s0.2-0.1,0.3-0.1c0.2,0,0.4,0,0.5,0.1c0.1,0.1,0.1,0.1,0.2,0.2c0,0.1,0.1,0.2,0.1,0.2C37.9,47.4,38,47.6,38,47.6z"/>
		<path class="st9" d="M45,39.3c0,0-0.1,0.2-0.2,0.3c-0.1,0.2-0.3,0.3-0.5,0.3c-0.2,0-0.4,0-0.6-0.1c-0.2-0.1-0.3-0.2-0.3-0.2
			s0.1-0.2,0.2-0.3c0.1-0.2,0.3-0.3,0.5-0.3c0.2,0,0.4,0,0.6,0.1C44.8,39.2,45,39.3,45,39.3z"/>
		<path class="st9" d="M51.6,32.4c0,0,0.1,0,0.3,0c0.1,0,0.3,0.1,0.4,0.2c0.1,0.1,0.2,0.3,0.2,0.6c0,0.4-0.1,1-0.3,1.5
			c-0.3,0.6-0.5,1.1-0.9,1.8c-0.2,0.3-0.4,0.6-0.7,1c-0.2,0.3-0.5,0.6-0.8,0.9c-0.3,0.3-0.6,0.6-0.9,0.9c-0.3,0.3-0.6,0.6-1,0.9
			c-0.4,0.3-0.8,0.6-1.2,0.8c-0.4,0.2-0.8,0.5-1.2,0.7c-0.8,0.5-1.6,1-2.4,1.5c-0.8,0.5-1.5,1.1-1.9,1.8c-0.2,0.3-0.3,0.8-0.5,1.2
			c-0.2,0.4-0.3,0.9-0.5,1.3c-0.7,1.7-1.4,3.2-2.3,4.4c-0.4,0.6-0.9,1.1-1.5,1.4c-0.6,0.3-1.2,0.2-1.6-0.1c-0.4-0.2-0.6-0.5-0.7-0.7
			c-0.1-0.2-0.2-0.3-0.2-0.3s0.1,0.1,0.2,0.2c0.2,0.2,0.4,0.4,0.8,0.5c0.4,0.2,0.9,0.2,1.3-0.1c0.5-0.3,0.9-0.8,1.2-1.3
			c0.8-1.2,1.3-2.7,1.9-4.4c0.1-0.4,0.3-0.8,0.4-1.3c0.1-0.4,0.2-0.9,0.5-1.4c0.5-1,1.4-1.6,2.2-2.1c0.8-0.5,1.6-1,2.4-1.5
			c0.4-0.2,0.8-0.5,1.2-0.7c0.4-0.2,0.7-0.5,1.1-0.7c0.3-0.3,0.7-0.6,1-0.8c0.3-0.3,0.6-0.6,0.9-0.8c0.3-0.3,0.5-0.6,0.8-0.8
			c0.2-0.3,0.4-0.6,0.7-0.8c0.2-0.3,0.4-0.6,0.6-0.8c0.2-0.3,0.3-0.5,0.5-0.8c0.2-0.5,0.4-1,0.4-1.4c0-0.4-0.2-0.7-0.4-0.7
			C51.7,32.4,51.6,32.4,51.6,32.4z"/>
	</g>
</g>
<g id="DESIGNED_BY_FREEPIK">
</g>
</svg>
